<?xml version="1.0" encoding="UTF-8"?>
<svg id="Livello_1" data-name="Livello 1" xmlns="http://www.w3.org/2000/svg" viewBox="0 0 2000 1400">
  <defs>
    <style>
      .cls-1 {
        fill: #2e3192;
      }
    </style>
  </defs>
  <g id="ZDmcxL">
    <g>
      <path class="cls-1" d="M1731.17,824.54c-12.88-14.56-14.94-16.14-16.95-35.97-.32-3.12.71-8.07,0-10.5-.16-.56-6.43-4.73-8.38-8.38-3.23-6-2.68-13.05-4.82-17.89-.86-1.95-4.1-1.98-4.77-4.22-1.39-4.65,6.46-15.64-1.84-20.69-3.79,4.78-7.66,11.35-14.24,5.98-2.12-6.18.04-11.25-2.72-17.8-2.62-6.21-17.14-16.78-17.49-22.06-.13-2,2.58-5.6-.61-6.92-1.32-.54-4.81,4.82-6.79,5.34l-.54,5.38c-3.27.74-12.1-1.94-14.18,1.03-1.35,1.93.13,5.64-.69,7.96-.45,1.26-2.38,1.43-2.81,2.11-5.95,9.4-3.58,3.83-10.56,8.78-2.03,1.44-2.57,4.19-4.59,5.3-8.74,4.81-3.97,2.38-9.53,9.2-3.16,3.87-11.45,6.55-12.49,8.56-2.5,4.83,4.65,13.61,2.09,19.09-.61,1.31-2.62,1.25-2.71,1.96-.25,2.23,2.08,4.23,2.33,6.41.46,3.91-9.03,19.55-15.22,18.72-4.45-.4-6.26-12.88-7.98-17.18-4.92-12.28-11.97-22.83-17.2-34.12-5.91-12.77-2.28-23.62-4.84-36.74-5.78,5.51-9.66,7.69-17.32,3.04-7.84-4.76-3.89-9.94-4.25-10.44-.29-.4-6.25-5.79-7.22-6.57-3.78-3.04-10.26-3.63-10.86-9.57-1.2-.85-10.66,3.29-14.98,1.91-3.23-1.03-4.18-12.36-8.21-1.9-7.94-2.03-25.38,3.94-29-4.65-1.43-3.41.15-7.14-3.68-9.38l-3.57,5.19c-6.32-.04-13.47,1.8-18.55-2.45-2.83-2.38-1.42-5.14-7.84-3.8l-.14-4.15c-7.16-.1-3.41-8.34-7.19-11.93-4.07,5.35-8.43-1.16-12.99.5,3.54,8.25,9.84,15.77,16.89,21.53,1.98,1.62,6.44,2.45,7.43,4.81,1.44,3.42-4.3,8.87,7.25,11.34,12.89,2.76,15.91-14.89,20.4-11.37.3,11.3,5.03,12.38,15.85,12.89l-.66,4.29c1.62,3.01,7.27.03,6.09,8.83-1.15,8.56-6.17,5.84-7.8,7.95-2.17,2.82.13,11.37-2.7,14.36-1.46,1.54-4.24.77-6.2,1.62-.45.19-7.77,4.36-8.31,4.72-1.69,1.11-1.67,4.83-4.16,5.98-2.98,1.37-6.97.05-10.75,2.67-4.15,2.87-2.34,7.01-2.84,7.5-.43.43-9.96.94-12.43,1.64-3.14.89-4.96,3.66-5.29,3.73-3.78.8-8.92-.72-13.07.28-8.15,1.98-12.84,19.41-22.34,7.8-5.58-6.81.32-15.19-1.59-20.99-.93-2.83-4.61-4.59-6.14-7.09-1.66-2.72-1.59-5.74-2.77-8.1-3.3-6.6-8.74-10.34-12.31-16.22-4.21-6.93-4.83-14.54-9.05-21.46-2.79-4.56-10.48-10.16-11.62-12.58-1.33-2.8.14-7.08-.75-8.41-.57-.86-6.75-.89-5.5-5.52l-1.77,2.23c-6.59.1-6.95-7.14-11.77-9.75-.46,11.42,22.24,26.37,21.58,34.89-.29,3.71-4.13,4.81-1.53,9.94,1.56,3.09,5.98,2.96,8.07,6.28,2.5,3.98,1.95,11.31,4.8,16.91,3.72,7.29,9.49,11.04,12.02,19.74.37,1.28,0,4.11.35,4.47.43.43,5.08-.41,7.21,2.28.49.62,6.76,13.15,6.95,13.9.55,2.2-.9,4.74-.57,5.21s8.76,5.43,10.1,6.04c4.56,2.06,14.34,4.86,18.9,2.97,2.05-.85,3.53-3.34,5.88-4.08,2.2-.69,4.65-.14,6.82-1.03,2.63-1.09,4.44-7,9.07-4.29l6.58,9.51-12.43,21.44c-2.77,16.94-16.2,28.95-29.18,39.92-9.11,7.7-6.89,4.77-14.22,14.41-1.75,2.3-11.23,11.85-11.56,12.63-2.56,5.99-.89,13.47-4.77,19.63l3.47.59c.03,6.53-.77,13.77,1.35,20.07.57,1.7,2.63,2.37,3.08,4.59.91,4.43,2.16,19.71,2.31,24.72.23,7.64-2.83,7.56-5.96,12.61-.68,1.1-.62,3.55-.98,3.85-1.06.89-6.83-.73-8.7.34-.53.31-.78,2.24-1.84,3.03-1.32.98-3.97,1.09-4.65,2.07-1.19,1.7.25,4.89-1.53,7.13-1.63,2.05-7.03,1.72-9.63,5.88-5.24,8.37,1.25,11.51,1.57,16.61.12,1.93-1.12,4.17-1.2,6.39-.08,2.2,1.23,4.99.97,6.3-.96,4.8-9.77,6.84-14.37,7.16-.22,5.33.5,15.02-2.48,19.65-1.72,2.68-5.73,1.18-7.19,3.9-1.43,2.68-.62,8.93-2.76,12.14-1.35,2.03-10.38,5.75-12.2,7.47-2.09,1.98-2.95,9.21-6.73,10.25-2.41.66-5.35-.03-8.31.7-4.31,1.07-7.27,6.2-11.86,6.05-2.51-.08-1.68-2.57-3.49-3.17-2.56-.84-6.96.2-9.86-.2-4.19,12.02-17.41,7.98-22.96-.88-5.6-8.94-.39-5.62,1.85-13.02-6.62-.69-7.21-4.97-5.73-10.65-6.81-.48-3.94-5.05-5.24-9.44-1.44-4.9-2.86-10.57-9.39-8.89-.29-1.94.8-3.83.71-5.71-1.01-20.79-3.65-30.64-14.05-48.69-1.09-1.89-4.28-4.17-4.49-5.27-.11-.58-.27-9.77-.31-11.65-.2-10.36,4.44-11.71,8.81-19.62,1.15-2.09.87-5.19,1.71-6.43.89-1.31,4.65-.94,4.26-5.04-.18-1.91-3.67-5.41-4.29-8.91-.65-3.65.4-7.77-.76-11.09s-7.55-4.23-2.9-11.72l-3.47-.57c-1.18-4.13,3.2-6.96.99-10.45-5.13-4.14-9.22-9.12-13.89-13.7-1.26-1.24-4-2.29-4.55-3.19-1.41-2.28.22-6.85-2.81-9.12,10.83-3.92,5.16-7.73,5.57-14.98.16-2.82,3.39-7.99,2.12-10.04-5.87-4.45-12.92-3.72-19.52-5.62-12.19-3.51-4.91-8.18-9.1-12.83-1.95-2.17-11.89-1.05-15.06-.33-5.29,1.21-13.85,7.95-18.88,8.91-7.82,1.49-19.76-4.35-28.11,1.22-2.34,1.56-2.84,4.88-6.32,5.87-11.74,3.35-17.9-15.38-23.27-19.9-2.2-1.85-6.95-2.01-7.19-2.29-.73-.86.57-4.22-.25-5.15-.36-.4-3.16-.11-4.47-1.64-1.12-1.29-.91-3.77-2.12-5.51-1.51-2.18-5.33-4.07-6.68-6.53-2.82-5.13-.37-12.57-10.32-11.14l2.84-11.79c-2.11-3.62-5.28-5.77-9.61-6.47,4.58-4.2,10.67-6.59,12.17-13.66-.72-13.2-5.11-26.96-1.46-40.01.8-2.86,4.47-3.94,1.72-8.56h4.53c-4.77-11.47,4.34-9.2,7.77-14.63,1.66-2.63,2.16-7,2.4-10.07l7.92.6c2.53-7.8,10.92-7.09,12.35-15.15.65-3.64.28-15.67,2.22-18.08.97-1.2,3.86.53,4.12-3.93l9.54.08c-1.18-6.47,5.91-9.93,6.8-16.1h1.66c2.01,2.53,15.21,7.12,17.92,6.5,1.51-.34,1.93-5.15,3.31-6.22,1.84-1.43,6.76-.85,9.05-1.6,2.14-.7,2.91-3.03,6-4.05,3.43-1.14,6.61.44,9.99-.02,3.14-.43,5.26-2.76,9.11-3.21,6.79-.8,15.41,1.21,21.36.76,3.72-.28,5.23-3.7,10.06-2.71.47.1,7.65,3.26,7.7,3.67.21,1.63-1.08,3.53-.9,5.15.3,2.67,3.13,5.25,1.98,9.62l-5.19,2.81v3.33c4.58.68,4.52,4.39,8.52,5.86,4.24,1.56,16.95,1.17,18.7,3.74.85,1.26-.03,3.52,1.2,4.41,1.78,1.28,6.56.91,8.87.88.72,5.67,9.17,5.16,14.2,5.43-3.59-7.65,4.6-19.63,13.91-16.94,2.15.62,3.62,3.76,6.14,4.9,5.29,2.4,12.52-.67,11.62,7.76,9.87-2.38,14.76-1.86,21.46,5.36l1.2-6.38c8.44-2.28,19.11,5.36,24.65-1.83,6.79-8.82,8.81-19.87,6.95-30.43-9.36.59-16.11,3.21-24.13-3.03l-9.26,4.82c-2.64-3.67-10.83-5.83-13.02-8.71-1.74-2.29-2.38-7.68-3.43-10.49-.41-1.1-2.39-.52-2.21-2.34s1.91-4.26,2.98-5.91l7.24-7.6c-3.7-.18-6.05,2.93-9.74,3.18-4.23.29-7.26-3.71-10.64-.51-2.55,2.42,3.06,6.69-6.54,6.08l-1.38,3.49c-.03.93,11.28,3.32,9.1,8.14h-6.77s1.08,6.4,1.08,6.4c-6.06,1.25-12.95,2.54-11.37-5.27l-3.28-.05v-3.21s5.65-1.07,5.65-1.07c-7.86,1.24-5.58-2.38-7.84-5.71-.83-1.22-2.99-1.27-3.98-2.92-.83-1.38-.48-3.4-1.68-4.91-2.55-3.2-4.92-.63-2.81-9.03-6.7-1.62-8.48-7.06-13.13-10.15-1.98-1.31-5.65-1.67-6.85-3.17-1.24-1.55-.59-3.78-1.25-4.69-.62-.86-3.8-.74-4.85-2.38-1.54-2.42,0-8.66-5.88-9.49-2.74-.39-5.23,5.55-4.69,7.67.41,1.63,3.64,3.31,4.82,5.14,2.72,4.2,6.73,13.26,12,15.51,2.86,1.22,5.56-1.07,6.79-.14,1,.76,1.16,3.2,2.22,4.4,1.51,1.72,16.32,11.75,9.55,13.4-3.12,1.01-6.99-5.17-9-2.14.41,6.31,1.46,12.75-7.34,12.9l1.13,7.5c-4.7-.55-12.92-1.72-13.55-6.99-.44-3.66,9.47-.34,11.17-1.71l1.1-10.48c-6.4-.51-2.19-5.76-8.85-4.47.91-6.54-3.88-4.82-7.85-7.04-2.96-1.65-12.15-8.29-13.38-10.91-1.73-3.67-.18-9.96-6.49-9.96-2.86,0-1.37,1.37-1.78,3.15-9.25-1.29-6.8,1.74-11.96,6.4-5.97-2.86-10-5.5-17.25-4.04-1.57,2.47.28,6.49-.64,8.43-.36.75-10.36,12.2-11.1,12.63-1.18.68-3.18.14-4.85,1.28-1.44.97-3.05,4.84-4.93,6.14,9.07,10.64-1.2,10.24-3.97,14.41-1.11,1.66-.42,4.67-2.88,5.85-3.31,1.6-11.01-.1-15.22.57-1.73.28-2.95,1.79-4.66,2.07-8.12,1.34-6.5-5.58-9.1-6.34-1.21-.36-6.02,1.33-8.93,1.08-7.97-.7-3.81-8.07-5.23-9.6-.57-.62-5.4-.12-5.47-3.87-.08-4.1,7.1-7.52,7.43-9.63.2-1.28-.85-4.33-.77-6.51.23-6.35-.81-7.58-1.07-11.88-.13-2.28,2.81-4.94,2.52-7.74,12.99-4.24,25.1,3.45,38.12,2.92,2.59-4.09.08-10.61,1.38-14.29.6-1.69,5.09-1.66,3.23-3.85-.14-.16-2.01-.05-2.77-1.09-1.74-2.38-.35-5.46-4.54-8.61-5.27-3.96-13.27-1.63-10.64-10.6l14.58-3.33-1.09-4.92,1.67-2.58,9.54,3.16.18-2.97c7,1.45,8.08-8.27,10.79-9.93,3.01-1.84,8.14-.5,11.52-1.13,2.96-1.77-3.81-14.45,6.93-10.57.11-6.87,12.4-5.25,17.99-7.63.42-3.36.25-8.55-2.1-11.2-1.16-1.31-3.75-1.62-4.38-3.35s-.67-8.56.87-9.56l8.11-1.09,1.11-4.04-3.46-2.32,1.08-3.22,7.93-.51c.75,1.92-2.01,2.82-1.99,3.75.01.73,2.72,2.57,3.41,4.03,3.85,8.2-8.88,11.52.35,23.26,5.05,6.42,7.16.52,12.47.08,2.57-.21,4.4,1.26,7.24.63,3.65-.81,7.68-5.58,11.98-5.98,5.16-.48,9.81,4.5,15.61.95,1.34-.82,6.79-12.68,7.2-14.62.82-3.85-.97-10,1.37-12.66,5.31-6.04,8.45,14.43,14.71,2.18-.44-1.82-12.5-3.55-3.39-11.84,7.1-6.46,12.07-4.85,20.34-1.6.72-3.6-2.09-6.06-4.15-8.66-10.15,1.89-12.93,9.57-24.49,3.13-6.93-3.86-11.39-20.65-7.34-27.03,2.17-3.41,15.99-4.42,13.4-14.65l9.02,1.05c.39-7.03-14.04-9.76-17.82-6.18s-1.21,11.31-1.89,12.62-6.19,4.15-8.01,5.38c-.98.66-1.26,2.49-1.96,2.92-4.46,2.72-10.12-.6-11.91,9.7-1.76,10.12,9.35,12.67,9.91,20.24.71,9.51-8.43,9.34-10.74,14.4-1.16,2.53,1.47,4.5.08,7.43-.23.48-6.21,7.83-6.62,8.26-.64.67-7.04,6.07-7.5,6.26-1.42.58-4.93-1.42-6.67-1.75l-.3-8.35c-5.46.49-4.62-7.91-6.76-12.3-6.88-14.12-17.57,2.58-28.7.42-4.14-.8-2.01-3.41-3.1-5.65-.86-1.77-2.97-2.67-3.08-4.5-.14-2.25,2.88-5.35,2.19-8.06-7.41,2.03-6.77-13.98-5.44-15.98.32-.48,3.2-.8,4.33-1.77,6.87-5.89,4.03-3.07,11.59-6.19,3.18-1.31,5.1-5,9.87-4.04l.52-6.48c9.15-1.13,6.24-2.82,9.21-7.35,1.16-1.78,2.94-2.47,3.96-4.82,3.35-7.67.62-4.57,6.17-11.29,3.12-3.77,7.67-11.44,12.67-12.69,2.41-.6,5.14.11,7.38-.51,4.81-1.31,9.04-4.09,14.26-4.17-1.7-5.68,5.95-5.16,5.88-7.91-.14-5.13-5.43-3.82-5.74-8.05,5.79.52,6.39-4.02,7.93-5.37,3.11-2.72,1.41,5.37,3.94,6.43l3.37-4.29c1.09,3.45,7.25,6.78,7.37,1.59.01-.58-5-1.5-3.4-4.8,6.27-2.27,6.53-2.18,11.29,2.13-.02-3.22.9-4.88,4.53-4.29-1.61,12.17,8.18,1.05,10.53,1.24,1.24.1,6.52,3.03,7.06,4.12.91,1.85-2.21,4.98,1.16,6.35,16.84,3.91,31.13,14.26,46.88,20.96,5.82,4.58-1.18,12.66-6.81,14.04-7.66,1.88-14.54-.04-21.51-2.7,1.84,5.42,2.54,11.51,5.83,16.45,1.89,2.83,10.89,12.08,11.12,5.02-3.87-.32-6.96-2.93-6.64-6.78,2.14-4.6,11.73-4.85,14.05-.71.92,1.64-1.37,6.88,2.04,6.24,9.66-4.28-.76-6.99-1.43-9.12-.65-7.27,6.96-5.35,9.77-7.09.97-.6,1.16-3.38,3.25-3.79,2.71-.53,10.38,4,11.75,2.99l-7.56-19.87c10.31-8.96,16.99,2.43,16.66,12.32,7.52,1.06,10.46-6.82,16.1-9.83,2.42-1.29,18.29-6.87,19.82-6.02.55.31,1.46,3.55,3.03,4.07,3.5-8.06,9.63-1.96,14.47-3.35,2.67-.76,3.06-6.41,9.12-5.3,2.65.48.42,8.81,3.53,7.59,7.91-5.3-1.43-7.7,1.07-14.02,2.56-3.43,22.84,1.53,26.9,3.58,5.73,2.89,6.79,6.54,10.69,10.19,3.15,2.95,5.65.69,4.39-3-2.43-7.08-14.79-12.85-13.1-22.98.71-4.27,5.65-3.68,6.84-5.71,3.06-5.21-1.93-19.67,10.77-19.62,10.7.04,11.95,21.71,14.13,29.5,1.12,4,1.67,7.96,2.69,11.4,1.78,6.02,8.9,14.14,2.4,20.39-2.2,2.11-5.7,1.75-8.44,2.75-8.74,3.21,1.54,7.32,7.88,5.3,7.34-2.35,8.5-18.81,11.18-20.5,3.72-2.35,10.89.07,13.05,3.79,3.34-5.32-5-11.74-10-10.76-.82.16.12,2.96-5.85,2.23-8.32-1.02-3.76-9.28-5.55-15.18-.78-2.58-3.55-2.01-4.06-4.7-.58-3.04-1.11-20.69,5.74-16.2,2.64,7.79,3.04,15.94,12.96,18.84,3.78,1.11-.43-4.49-.59-5.98-.61-5.55,2.93-7.94,8.48-6.89,3.87.73,2.78,3.95,4.24,5.11,1.72,1.37,6.95.63,9.41,2.33,2.47,1.71,2.74,7.87,7.26,7.59-.18-3.91-4.23-11.8-7.95-13.37-1.97-.83-4.76-.11-6.2-1.63-1.46-1.54-2.47-9.89-1.43-11.61,8.42-5.66,18.54-3.12,28.01-2.37.88-8.42-9.61-2.66-6.59-12.7,10.06-4.82,20-7.7,31.47-6.6v-5.37c7.3,3.48,12.08-4.69,15.28,3.24,8.2-6.96,15.55.61,24.28-2.18l-3.46-2.73c5.33-7.45.74-14.26,13.08-14.51,10.93-.22,11.82,11.14,17.5,12.56,3.27.82,3.48-2.23,5.73-3.3,3.83-1.82,15.73-1,19.1,1.09,1.33.83,2.23,3.38,4,4.79,5.08,4.03,10.32,1.59,8.24,11-2.2,9.93-17.59,11.58-24.98,17.07-1.75,1.3-4.41,2.66-4.14,5.18.71.66,14.73-7.02,17.58-7.45,7.25-1.08,27.26-.74,35.02-.1,10.62.87,19.3,6.77,29.27,9.63l3.63-8.61c6.62-1.56,16.21-2.02,22.28,1.33s8.98,11.9-.39,11.67l.05,3.13c4.54.7,21.37,8.55,24.31,4.42,1.1-1.53-.35-5.05,2.2-6.48,2.57,2.16,5.42,6.21,9.13,6.42,2.69.15,4.84-2.02,7.84-2.23,6.5-.45,13.36,3.95,19.77,1.14l-2.76-7.52c1.8-4.22,6.64-4.38,10.11-7.14,3.03-.02,3.95,4.24,5.83,4.85,4.94,1.59,10.36-2.27,13.56,5.62,5.88-1.79,16.31-3.6,22.21-2.25.39.09,2.95,3.87,4.95,5.21,3.32,2.23,15.63,8.16,19.33,8.56,7.43.81,12.23-4.94,23.8-2.28,10.22,2.35,14.7,15.08,21.21,15.38,4.78.22,2.83-3.05,4.61-4.39,6.39-4.82,16.16.7,22.6,1.11,2.77.18,6-1.23,7.54-.86,1.95.48,4.32,4.79,8.7,3.07-.25-13.23,6.45-7.3,14.25-6.56,5.87.56,11.94-.41,17.67,1.47,3.48,1.14,5.04,3.56,8.44,4.86,9.34,3.58,20.23.85,24.87,12.04l12.78-.03v5.37c9.21-.95,10.13,3.55,14.13,9.66,1.11-3.4,6.8-4.58,10.19-4.39,3.85.22,4.79,3.45,8.13,4.17,3.62.78,7.92-.07,11.64.22,1.28,9.86-3.66,9.41-11.31,12.37l4.49,7.46c-6.02,14.55-12.95-1.29-14.34-1.59-2.35-.51-5.1.46-7.99-.69-1.81-.72-1.39-3.12-4.18-3.61-3.24-.56-7.26.64-10.58-.17-2.58-2.56-2.2-15.08-8.12-12.19-5.88,2.87,1.63,8.99.41,12.09-1.31,3.18-11.13,3.15-9.35,7.18,1.28,2.89,16.27,5.57,16.88,15.21s-10.29,1.21-12.97,1.48c-3.64.36-9.56,10.02-16.94,5.42l-7.42,18.23c-6.9.39-6.47-8.81-14.01-8.54-1.47.05-20.05,9.13-21.05,10.13-2.49,2.47-3.62,7.32-4.26,10.64,4.86,4.47,11.84,8.53,12.17,15.64l-4.43,1.79,1.04,12.19-5.62-1.06c2.39,4.01-8.89,24.96-10.94,25.62-9.45,3.02-11.54-14.47-14.06-19.6-4.37-8.9-7.25-10.95-6.72-22.68.41-9.05,3.39-8.78,7.31-14.55,2.5-3.69,5.01-8.62,7.98-11.74,5.68-5.95,14.03-6.78,8.49-17.15-6.89-.8-4.47,9.08-9.61,9.7-6.58.79-6.46-10.02-17.98-8.58-12.61,1.58-7.29,16.55-11.45,22.44-1.99,2.81-12.27,5.29-15.23,2.75-1.6-1.37-.61-3.48-1.36-4.6-.44-.66-5.86-2.55-7.08-2.45-3.4.28-2.93,3.96-4.53,5.43-3,2.73-22.94-.61-29.39.01-15.55,1.5-13.4,9.1-20.02,19.63-3.04,4.84-6.6,9.1-10.81,13.07,2.23,6.95,13.19,3.03,11.03,12.36,5.41-.01,2.65-6.34,8.26-6.09,11.66.53,17.52,14.02,16.5,23.68-.3,2.84-2.21,5.81-2.08,8.63.15,3.33,3.31,6.96,3.23,10.69-.13,5.75-13.74,31.57-18.03,36.58-3.68,4.31-6.81,7.22-12.98,7.09-2.31-.05-4.99-1.36-6.61-1.21-.8.08-.86,1.73-1.58,2.16-8.3,5.02-4.14,3.36-5.06,12.7-5.57,1.59-4.78,8.79-11.05,8.82-1.17,1.47,8.35,8.19,10.15,10.21,5.5,6.17,11.21,16.95,7.09,24.94-2.61,5.07-16.92,7.69-17.34-.27-.3-5.81,5.29-8.9-3.94-10.17,2.51-9.17-5.93-12-12.92-15.61-.58-2.21,4.12-3.02,5.09-4.8,2.46-4.53-2.15-5.99-6.24-4.95-3.29.84-14.38,11.75-16.71,4.18-1.1-3.57,1.43-8.31-1.92-11.02-4.56,1.01-4.55,6.4-6.53,8.27-2.31,2.2-7.65,1.06-7.71,6.16-.05,4.89,5.48,9.32,10.58,7.9,3.14-.87,10.44-11.81,16.09-.9,5.72,11.05-7.98,5.98-12.47,12.92-1.57,3.29,3.09,12.29,5.3,15.35,1.9,2.65,8.03,6.97,8.63,8.98.74,2.44-.12,5.42.51,8.1.86,3.64,7.08,20.44,4.07,22.15l-4.3.17c1.56,4.94-4.72,7.8-5.49,10.36-.74,2.45.53,5.77-.77,7.85-2.21,3.52-11.7,1.29-8.95,8.6-8.57.99-5.02,6.05-7.43,8.05-5.24,4.32-16.7.36-22.69,2.08-5.57,1.59-13.17,12.2-17.45,12.41-1.91-.78-1.5-11.14-4.53-9.67-2.63,1.42-1.05,4.67-1.96,6.2-.62,1.03-8.34,3.71-10.24,8.05-4.33,9.9,12.19,17.3,16.63,23.37,5.52,7.56,6.35,19.61,3.9,28.25-2.56,9.05-13.3,13.25-19.11,20.49-3.92,1.6-6.87.61-7.32-3.6-.5-4.64,4.43-4.01.55-9.24-4.68-6.31-5.74-.77-12.43-1.62.99-7.33-.35-14.01-9.42-13.84-2.72.81-3.74,6.91-3.4,9.37.31,2.3,7.27,19.07,8.64,20.24,1.73,1.48,4.94,1.55,6.95,3.6.99,1.01,7.8,9.04,8.55,10.13,5.66,8.29,2.22,18.37,2.25,27.39-4.45.33-8.15-.06-12.44-1.08,1.67,1.89,5.23,4.22,5.41,4.52.72,1.21.09,4.27.73,6.29.54,1.71,3.56,10.81,4.02,11.21.84.71,6.37,2.03,6.79,1.6.51-2.06-1.55-5.53,1.7-5.38,6.84.31,10.43,4.27,9.6,10.75l-6.77-1.06.94,16.46c-2.88,3.14-7.64,5.19-11.75,2.91-1.63-.91-13.54-14.75-15.65-17.33-3.6-4.42-9.81-11.55-12.19-16.34-5.58-11.24-2.79-14.14-15.08-23.24-2.67-1.98-13.53-6.9-13.99-8.25-1.91-5.55,6.76-8.2,11.58-6.62,2.17.71,4.19,6.6,6.93,8.43s6.14,1.69,9.13,3.14c6.99,3.38,7.56,10.3,18.6,12.93ZM1352.45,521.88c-3.76-1.06-5.88,2.39-8.7,3-2.57.55-8.1-.34-9.24.36-.62.38-.54,2.99-1.52,3.91-1.5,1.4-6.4.42-5.4,2.91,1.41,3.49,6.85,2.54,9.99,2.85l.84,4.18c-7.11,2.8-15.39,6.73-23.09,4.56-1.54-.44-2.92.33-2.48-1.92.71-4.56,9.05-4.9,7.94-10.17l-5.52-1.21-.13-7.4-5.54.12c-1.58,6.4-1.73,14.77-8.6,18.11l-2.8-3.19c.27,3.3-3.31,6.19-4.03,8.52-.78,2.55-.08,4.82-.57,6.97-.7,3.12-4.17,5.99-1.66,10.28l18.02-1.19,22.71-5.38c5.33.29,5.04,4.61,7.32,5.94.51.3,10.38,3.46,11.03,3.58,5.53,1.09,18.43,1.77,18.49-5.64.08-9.16-7.85-7.65-11.97-10.19-2.95-1.82-4.5-5.56-6.79-7.54-5.71-4.93-15.8-3.64-7.83-12.81,1.12-1.29,11.22-7.27,9.53-8.65ZM1431.59,534.74c-2.13-3.78.12-5.66.69-8.51.89-4.41-4.61-.19-5.81-.07-3.82.39-10.31-3.24-14.91.32-.8.62-1.27,2.48-2.51,3.48-3.45,2.78-11.02,7.08-11.35,11.83-.28,4.02,7.83,17.49,10.8,20.78,3.4,3.77,7.7,4.26,10.49,8.31,1.14,4-3.25,2.87-4.12,3.81-.69.73-.46,4.72-1.57,6.6-1.37,2.34-5.23.86-1.8,6.35,1.63,2.61,13.16,11.09,16.13,11.11l10.82-5.67-6.86-29.34c4.7-1.25,3.86,4.39,7.9,4.28,1.61-3.77,1.07-6.84-.11-10.6l-6.03-.19-2.33,5.41-2.19-8.64-9.73-1.49-3.24-9.62,5.57-1.71c-1.82-6.23,4.87-7.1,10.15-6.43ZM1489.23,525.1l-9.04-.02-.14,7.38-5.58,1.88.6,11.2,1.12.72c5.07-3.05,7.28,3.58,11.37,3.49,6.47-1.3,2.62-6.29,3.11-8.94.18-.99,1.83-1.8,1.99-3.36.07-.69-2.23-.25-2.96-2.66-.54-1.8.16-9.04-.49-9.69Z"/>
      <path class="cls-1" d="M712.44,366.4l-6.72.3-1.62,5.97c-5.22,5.2-12.45.99-17.5-2.14-1.52,6.33,8.88,3.86,10.06,7.12.5,4.34-1.81,11.35-6.62,12.79-2.91.87-7.02,0-9.48,1.47-1.35.8-2.39,5.16-4.13,7.08-3.82,4.19-13.75,8.52-18.72,13.35s-10.81,12.23-9.41,19.24l7.7,2.89,3.09,12.35c3.39,2.09,6.54-.2,9.94-.14,8.85.17,8.6,6.62,13.6,9.73,2.95,1.83,6.35,1.46,8.43,2.73,1.56.96,2.6,4.57,4.52,5.26,2.24.81,8.4-2.23,11.36-1.56,2.32,7.5-5.91,24.32.3,29.76,5.38,4.71,7.99-5.74,12.71.28,4.51.02,1.68-25.9,6.25-29.46,1.4-1.09,4.47-.99,6.26-2.64,5.25-4.83-3.2-22.27-2.9-29.04l6.82-1.83c2.95-7.07-1.35-13.79.23-21.01.26-1.19,4.57-9.13,5.28-9.74,4.16-3.55,8.89,3.01,12.01,3.57,3.68.67,8.59-.77,12.18.24,2.9.82,7.46,7.79,10.37,9.47s10.51,1.41,7.98,6.4c-1.02,2.02-3.42,1.61-4.04,5.85-1.52,10.45,3.15,15.94,14.46,11.59,7.26-2.79,13.64-29.19,16.17-3.52l6.58,1.26.14,8.44h4.54c1.55,5.09-3.6,6.4-3.41,10.72l4.48.05,1.19,9.61,7.9-2.15.02,4.29c2.35-.27,3.89-2.08,5.62.53l-5.62,9.12c.54.51,8.41-4.9,11.88-1.08,1.9,2.1,2.45,16.09,1.53,18.65-1.54,4.27-10.1,1.24-13.46,2.21s-3.97,4.16-6.33,5.83c-3.02,2.14-14.88,3.44-19.01,3.41-3.59-.03-14.14-2.6-16.79-2.02-1.8.4-3.45,3.55-5.39,4.59-5.44,2.92-11.27,2.93-14.61,9.74,8.72.71,11.68-10.65,21.8-7.83,8.67,2.42,1.39,8.57.92,10.18-2.25,7.75,20.04,10.54,21.18,12.3,4.71,7.32-10.93,9.23-14.42,11.19-5.36,3-15.71,18.88-18.86,3.64,1.82-5.98,16.42-7.36,16.51-14.98-9.95-2.44-15.99,13.23-21.5,15.54-1.78.75-3.58.18-4.77.57-.55.18-7.71,5.16-8.79,5.88s-2.87-.64-3.94.45c-3.47,3.56-3.42,8.38,1.64,10.38l-1.06,3.14c-3.85,2.88-9.11.55-13.31,2.39-3.55,1.55-4.15,7.17-4.96,7.63-1.54.87-4.63-.85-7.19,1.23-3.78,3.06-2.28,11.98-2.98,12.74-.4.43-8.82,2.38-8.64,6.07.05.97,4.37,3.19,3.08,10.65-.88,5.11-4.2,4.58-5.56,6.8-.62,1.01-.88,4.32-1.17,4.53-.87.62-4.17-1.33-5.98-.91-1.41.32-3.23,2.96-4.89,4.01-1.4.88-4.02.83-4.68,1.44-.81.76-.53,3.87-1.91,5.16-2.41,2.26-7.75-.63-10.04,6.57-1.12,3.54-1.35,13.89-.84,17.61.12.86,1.88,6.55,2.47,9.48,1.55,7.76,6.41,15.93,2.18,23.76-8.94-.83-15.94-12.76-16.91-20.54-.46-3.74,1.48-8.24.88-10.39-.44-1.55-7.28-7.23-8.94-7.75-2.07-.65-4.57.83-7.2.54-2.86-.32-4.38-2.74-6.93-3.18-5.39-.94-9.43,1.21-14.02,3.26l2.21,7.42c-4.84,1.11-9.85.31-14.55-1.21l-.16-7.37-3.49.63-1.04,5.82c-4.85,1.74-7.71-5.12-10.52-4.14-4.12,1.43-7.79,10.31-12.04,13.3-2.91,2.05-6.58,1.68-7.47,4.69,1.18,6.62-4.85,15.84-5.1,21.04-.19,4,2.54,7.37,3.2,10.97,1.29,7.02-.66,15.6,7.14,20.06,6.22,3.56,14.38,2.98,21.02.81,9.46-3.09,5.91-11.33,11.96-15.59,3.76-2.64,14.08-4.37,17.53-1.52.53.44,2.6,6.1,2.45,6.66-.34,1.32-3.24,1.27-3.4,2.36-.2,1.3,1.31,3.16.8,5.78-.68,3.44-4.25,5.22-4.99,8.23-1.18,4.81.53,9.56.9,14.27,5.02-1.22,8.55-3.15,14.11-2.12,3.08.57,6.56,5.45,10.73,5.38-1.18,6.64-7.52,23.22-3.43,28.51.71.92,2.83,1.14,3.53,2.24,1.37,2.17.06,5.07,2.96,6.57,7.4,3.83,9.28-2.12,12.45-2.83,5.88-1.33,15.04,7.46,19.55,10.55l.49-7.59,5.1-1.06c-1.29-12.8,7.65-9.78,13.58-13.41,2-1.22,2.73-5.63,6.35-5.9,2.43-.19,3.75,1.99,5.67,2.23,5.25.66,4.54-2.97,11.24,2.16,4.26,3.26,5.38,3.13,8.9,5.46,1.91,1.27,1.8,3.66,4.63,4.18,2.05.38,10.35.34,12.43-.03,2.73-.5,4.45-3.52,9.16-4.17,4.29-.59,8.79-.18,12.9.98.82,2.14-2.08,3.95-1.78,5.41.09.42,4.26,7.17,4.59,7.47,2.01,1.87,4.94.49,6.08,1.19.88.54.61,4.08,1.58,4.97,1.73,1.56,5.77-.16,4.23,6.71l6.64.14,1.29,6.3c4.08,1.49,5.05-3.99,6.44-4.32s6.25-.25,7.56.18c1.44.48,1.46,2.47,2.09,2.82,1.22.68,3.44-.19,4.14.4.48.41-.44,2.43.84,3.11s4.7.28,5.78,1.31c1.73,1.64,5.63,9.51,7.23,11.91,2.65,3.98,6.47,5.11,6.74,10.86.35,7.57-6.6,11.26-9.15,17.73,5.28-5.27,15.09-13.42,18.09-2.14,7.29-2.82,16.42-3.88,22.65,1.55,3.03,2.64,3.92,7.96,9.27,6.87,1.57-.32,3.13-2.02,4.84-1.98,2.12.04,2.98,2.5,4.72,3.01,3.41,1,12.02-1.09,14,2,.77,1.21.72,4.2,1.16,4.53.7.54,3.68-.36,5.52.65,1.24.68,2.74,4.58,5.05,5.94,2.56,1.51,5.81,1,7.95,3.24l.56,10.68h4.54s-.13,7.45-.13,7.45l-3.28.07c2.69,5.6-.23,4.58-1.06,6.18-.66,1.28-.48,3.35-1.44,4.32-.9.9-3.47.69-4.06,1.51-.63.86.03,3.01-1.27,4.72-2.03,2.65-4.68,3.96-6.58,8.75-.66,1.66.18,4.39-.77,5.71s-4,.71-5.2,1.5c-4.16,2.76,2.67,23.1-1.04,28.81-.63.97-2.8,1.07-3.27,2.49-.99,2.96-.32,8.38-1.63,12.44-1.11,3.42-4.15,6.03-4.87,8.35-.76,2.46,1.15,6.96-1.01,9.69-1.7,2.16-6.4.39-8.93,1.21-1.46.47-1.29,2.55-2.68,3.04-3.59,1.27-9.27.72-13.85,2.69-4.95,2.14-5.72,6.2-8.59,7.96-1.43.88-4.27.87-4.75,1.38-2.66,2.82.15,18.03-2.47,22.61-1.08,1.89-6.1,2.32-6.62,3.1-1.15,1.74,1.26,5.71.53,8.5-.57,2.21-2.7,2.11-3.42,3.21-3.01,4.55-.07,6.26-9.24,7.38-1.36,1.82.34,4.73.07,6.69-.37,2.74-9.84,12.78-12.43,13.75-8.07,3.03-10.1-2.53-17.49-3.19l.66,3.31,4.86,1.1.28,8.32,4.28,1.32c.48,4.39-1.67,8.97-5.86,10.9-1.62.75-4.63.52-5.18,1.03-.45.41.05,2.07-.4,2.69-1.26,1.71-15.7,2.45-18.94,3.57-1.32,1.46,6.52,18.43-6.15,17.13-4.6-.47-6.46-6.6-9.71-2.65.35,3.88,3.87,4.04,5.9,7.26,4.85,7.72.14,8.75-3.37,14.43-2.5,4.06-1.19,3.6-5.26,7.93-1.57,1.67.89,3.26-5.24,3.77l-.58,5.76c2.16,3.33,11.36.37,9.71,10.14-.59,3.52-4.32,2.89-5.19,5.85-1.13,3.85-.15,7.96-.54,11.86-14.18-.9-4.04,16.35-6.73,24.72,4.09-.54,7.69-1.98,11.65.22,1.96,1.09,2.23,3.05,3.6,4.08,2.67,2.01,7.48,3.71,8.46,7,1.1,3.66-6.3.03-7.9.97l-2.9,4.95-15.28-6.94.08-8.13-3.37,6.95c-1.85,2.72-4.8-4.52-6.22-5.88-2.44-2.34-12.41-8.23-13.86-9.92-1.21-1.4-1.08-6.51-2.48-8.64-.84-1.28-4.5-2.65-6.22-5.1-4.51-6.4-3.8-14.54.46-20.78-9.74-5.06-1.33-12.41-.25-19.69.73-4.94.16-9.24-1.03-14.02l-5.44-.2c.75-5.5,1.67-11.02,1.11-16.63-.65-6.59-5.04-14.93-4.59-21.46.31-4.51,4.25-7.65,5.8-11.76,1.74-4.63,3.15-14.73,2.22-19.42-.53-2.66-3.13-2.21-3.45-3.4-2.19-8.23,3.3-15.99,3.46-23.45.08-3.61-3.75-9.8,1.66-7.26l1.67-1.33c-.66-3.67-1.9-8.09-1.14-11.8.55-2.67,3.12-2.21,3.44-3.39.66-2.49-.54-6.59.05-9.39l-3.35-.66c-1.91-4.3,2.67-6.21,3.26-9.07,2.79-13.5-3.34-33.98-17.05-40.67-2.62-1.28-5.5-.97-8.39-2.77-2.53-1.58-3.62-4.62-5.64-6.45-2.72-2.46-7.41-3.08-8.29-7.25-1.29-6.06-3.16-11.29-6.33-17.5-4.36-8.53-9.92-16.48-13.89-25.45-1.01-2.28-1.31-5.29-1.44-7.76l-6.06,1.17c-3.11-.55-3.73-20.82,6.07-18.35.21-4.46-6.72-7.14-6.71-11.26.01-3,4.21-7.16,5.31-9.93.67-1.68-.25-4.15.49-5.42.26-.45,7.26-3.9,8.67-6.21,1.22-1.99,1.1-5.55,1.33-5.75.48-.42,3.79.41,5.61-.57,5.98-3.21-.02-35.91-12.45-34.89,4,14.72-7.58,4.38-12.1,3.43-7.12-1.5-8.78,2.63-10.43-7.27-3.79-.73-8.56-.39-11.42-3.4-3.44-3.62-.76-5.61-1.64-7.75-.38-.92-2.4-2.08-3.1-3.57-1.28-2.72-3.4-9.39-5.47-10.9-.51-.37-10.87-5.15-11.49-5.29-4.85-1.12-7.02,1.99-12.65-2.91-1.92-1.68-3.9-6.24-5.69-7.48-.42-.29-9.07-3.65-9.58-3.75-2.35-.45-4.02,2.68-7.38,2.78-16.53.49-39.19-20.56-53.27-27.95l-.36-1.42c4.27-5.15-1.11-10.72-.6-16.91l-5.12-1.04c1.65-8.62-9.17-4.97-6.97-14.84l-5.4-1.32c2.06-7.52-10.65-15.38-12.32-21.04-.83-2.83.58-6.24-.79-8.91-.75-1.46-9.08-6.31-10.2-9.64-2.37-.46-1.84,1.08-1.69,2.67,1.23,12.55,11.41,18,16.47,27.31,1.32,2.43,1.42,5.09,2.54,7.25,3.42,6.62,8.6,12.95,8.13,20.72-5.9,2.41-14.78-6.32-16.35-10.78-1.32-3.74.31-7.21-2.33-10.67s-15.83-7.55-15.15-11.14c11.56-9.94-2.85-13.46-6.31-21.08-3.22-7.1.35-11.61-.43-18.62-7.73-.81-10.74-5.9-17.76-8.17l.19-7.62-6.32-1c-1.65-3.44,2.73-8.82,2.12-11.05s-6.38-5.49-7.8-7.71c-2.23-3.49-2.89-11.01-2.17-15,.5-2.78,3.01-4.54,3.17-5.6.2-1.37-2.19-2.39-1.94-4.9.4-4.12,4.43-9.41,5.23-12.34.74-2.69-.28-5.62.49-8.13,1.1-3.6,2.8-2.97,4.36-10.88s.56-3.69-.07-9.81c-.23-2.21,1.25-4.11,1.19-5.19-.03-.45-3.39-1.91-4.58-3.28-3.82-4.4-5.68-10.52,1.15-12.9-7.07-5.27-9.75-12.67-6.78-20.93h-6.78c2.37-5.65-3.79-5.85-4.27-8.17-.45-2.15,1.88-7.89,3.15-10.07l-7.77-2.3c.79-7.11-1.5-4.16-4.17-6.21s-1.36-6.68-1.64-9.76c-4.46,2.22-7.48.69-9.6-3.22l-2.3,3.22c-3.69-.55-5.74-3-6.23-6.42l-5.06.02c.34-8.1-8.09-1.6-7.96-9.83-6.36-2.56-12.53,2.06-19.04-.82l-.69-5.46c-4.56.35-5.07-.51-6.21-4.35-8.36-.25-4.97,6.28-6.37,8.46-.14.23-3.56,1.18-4.93,2.29-6.24,5.05-12.49,16.23-20.9,6.97-.54-2.37,3.18-2.4,3.38-2.69.81-1.21-2.9-3.48-1.45-5l13.89-8.4c.49-1.85-.77-1.76-2.23-2.15-10.28-2.8-10.86,8.34-16.42,13.43-1.88,1.72-7.02,3.59-7.97,5.38-.9,1.69,1.39,4.53.55,6.84-.67,1.85-3.52.98-3.3,2.81,8.29-1.21,7.94,3.78,4.74,9.34-5.38,9.34-18.78-.12-5.88-7.73.18-.81-1.08-.68-1.67-.52-6.45,1.86-22.12,16.33-30.07,20.83-8.98,5.08-20.37,10.29-31.07,9.27-4.56-.44-8.8-3.18-4.21-6.56,3.64-2.68,18.82-7.11,24.47-9.75,8.98-4.19,24.88-9.97,22.2-21.31-2.51-.79-4.45,2.17-6.21,2.15-1.64-.02-2.81-2.03-4.51-2.12-2.19-.11-4.8,2.5-7,3.01l-2.7-1.35c-3.4-4.39,2.13-8.98,2.33-13.5-7.05,7-21.57-4.99-9.04-8.05-14.83-10.01.77-9.52,2.08-11.45,1.7-2.49-1.35-7.94,6.96-10.12,3.79-.99,5.01,1.21,7.91,2.78l1.86-5.29,8.32,1,3.39-10.73c-3.79.31-4.79,4.29-8.71,5.13-7.79,1.68-19.44.41-16.63-9.43l-5.1-2.23c-.6-8.81,7.11-5.11,11.68-6.28,1.1-.28.15-4.94,5.89-5.43s4.57,3.53,6.83,4.17c2.88.81,14.27-3.35,18.49-2.05-4.8-5.07-31.06-6.03-27.81-17.18,2.27-7.78,15.05-2.21,21.27-5.38,2.95-1.5,3.67-8.83,5.59-11.59l13.8-.32,3.67-6.17c3.73-1.25,8.05,1.15,10.94.74,3.43-.49,6.45-6.25,12.1-4.1l.49,5.44c6.47,3.87,8.67-1.99,13.51-4.31l5.97,8.59c5.49.79,13.63-3.81,18.45-1.66,1.7.76,2.29,3.4,5.16,3.77,4.62.6,11.18-3.41,18.01-2.14,3.45.64,4.26,4.19,7.07,5.09,3.71,1.19,9.63,1.35,14.11,2.7,7.27,2.2,13.85,6.3,21.22,8.28.04-2.35-.24-5.26,1.47-7.21.55-.64,12.45-8.87,13.99-9.78,4.63-2.72,11.19-3.58,10.05,3.09l-7.4,3.71c8.4,4.16,12.12-8.19,14.67-9.68,6.26-3.65,5.52,6.27,8.8,8.05,5.9,3.19,5.85-3.43,8.76-2.99,3.15.47,1.7,7.43,5.99,4.9.42-.25.51-2.3,2.05-2.82,6.42-2.16,16.23,6.07,22.74,7.11,8.42,1.35,19.37-2.43,24.85,6.14l-3.07,5.91c5.14.44,7.67-5.03,12.94-4.31s5.86,9.33,13.61,9.73c3.5.18.66-2.75.91-4.72.36-2.85,5.11-8.76,8.33-9.04,4.27-.38,5.88,4.76,8.01,6.25,4.11,2.88,20.56,3.76,25.45,1.86,3.04-1.19,3.04-4.26,5.41-5.59,9.89-5.55,11.06,4.97,11.81,4.76,7.11-3.76,14.93-6.65,8.36-15.43-2.3-3.08-8.8-2.89-7.74-8.12,9.14-1.66,9.01-15.9,20.96-10.86,9.27,3.91,1.92,11.84,4.05,17.61.73,1.98,3.96,2.13,4.9,3.93.76,1.45.65,9.39,3.8,4.68.87-1.3,1.46-4.15,3.09-4.62,7.98-2.3,2.98,18.18,6.68,18.16,3.28-1.76,2.47-5.5,4.07-7.92,1.44-2.18,5.56-3.02,6.95-6.28,1.85-4.36-1.03-8.42,6.04-9.34,7.93-1.03,13.24,3.05,15.14,10.18-.05,3.15-4.93,3.54-5.54,5.5-.79,2.51,4.76,7.02,1.12,12.79-2.32,3.67-18.81,10.15-18.31,1.69ZM477.43,521.87c.65-6.17-.73-11.85-6.76-15.03-.73,2.46,3.03,4.55,3.22,6.09.18,1.44-2.15,2.3-1.61,3.56.36.83,3.96,4.58,5.14,5.38Z"/>
      <path class="cls-1" d="M1004.1,191.16l-17.38,4.42c-.16,3.37,5.04,2.12,7.42,1.66,12.45-2.38,15.58-7.32,31.08-6,3.73.32,16.15,3.59,10.2,7.63-5.27,1.5-49.12,5.74-49.23,9.05,8.87,5.29,18.94-5.71,28.3-4.36,7.52,1.09,2.99,5.72,3.91,10.27,6.31-.34,11.71-9.3,17.9-7.4,7.6,2.33-9.68,13.67-7.17,15.97,6.95.33,10.08-6.09,15.03-8.79,6.48-3.54,24.23-6.69,31.56-5.98,3.02.29,10.33,2.21,9.42,6.29-1.65,7.36-31.65,12.67-39.06,13.86-3.43,2.64,10.49,2.29,9.03,5.86-5.46,7.34-18.16,7.31-18.16,18.13,3.76,3.38,8.33.15,12.99.73,7.21.88,5.06,6.41,5.14,11.72-6.32-.32-9.7,3.07-9.1,9.18.39,4,9.71,1.52,9.94,6.57.27,5.88-7.76,14.6-14.35,11.14l2.26,4.8c-3.98,3.28-10.04.13-10.19,7-2.11,1.45-9.06-6.16-11.92-2.21-4.9,6.78,5.79,6.33,8.87,7.8,5.82,2.77,10.27,17.43.26,17.02-7.56-.31-11.96-9.14-15.83-9.31s-8.52,4.24-7.37,8.16c5.92,2.26,20.56-1.72,22.11,5.28.87,3.9-21.99,20.99-26.59,22.12-8.8,2.15-13.37-2.75-19.83-2.75-9.09,0-7.27,10.68-10.47,15.85-4.64,7.48-28.96,5.14-37.31,9.12-2.04,4.32.59,8-.75,12.76-.39,1.37-6.68,7.14-8.25,10.37-3.44,7.07-3.38,20.79-11.9,24.12-11.11,4.34-10.01-6.27-12.32-7.6-3.36-1.93-8.56,2.24-14.34-6.25-3.44-5.05-16.34-40.11-17.06-46.07-.45-3.76.33-10.06,3.36-12.74,5.59-4.96,17.29-2,11.33-16.21-12.31.17-19.05-8.54-2.33-7.99l-2.85-7.51c-3.53,1.61-4.93,4.28-9.59,3.23-.15-14.19-5.09-47.42-24.47-48.24-6.03-.25-13.94,2.88-19.16,3.06-7.36.25-22.84-4.76-24.2-12.77,4.83-2.34,11.89.03,16.21-1.26s-.62-6.14-4.33-6.37c-4.7-.28-16.07,6.1-19.27,1.19-4.73-7.25,11.1-7.61,14.48-9.64,2.69-1.62,5.64-6.17,9.98-7.97s9.02-1.33,13.3-2.94l.31-12.58,16.79-2.84c4.27-3.18,7-11.4,12.42-12.98,2.42-.7,4.22.42,5.82.09,1.79-.37,3.54-2.68,5.47-3.27,6.6-2.02,11.29,4.06,16.99,5.97l-1.12-6.43,10.05,1.18,1.17,7.75c2.27,2.39,5.2,1.59,7.98.67-4.14-14.29,4.8-9.98,15.1-9.44l2.91,4.54,3.47.66,1.15-15.03c6.5-2.31,12.43,5.88,17.48,5.4,3.7-.35,5.99-6.04,8.47-8.13,7.19-6.08,32.53-10.02,41.57-7.16,4.15,1.31,5.8,3.3,4.68,7.61Z"/>
      <path class="cls-1" d="M1993.23,962.13c1.03,1.53.43,8.18,1.93,10.51,1.23,1.91,5.74,1.57,7.9,4.31,2.26,2.85,1.23,6.31,2.55,9.38s7.08,7.03,7.97,10.7c1.22,5.1-2.96,24.34-3.61,31.3-.24,2.59.93,5.23.41,8.12-.96,5.33-10.64,9.45-13.56,13.98-1.89,2.93-1.6,6.66-4.47,9.7-2.01,2.13-6.38,3.26-7.81,5.47-3.8,5.87,1.66,10-8.73,15.32-17.11,8.75-29.24,10.39-47.02,1.97-9.58-4.53-9.99-6.22-6.7-16.12l-4.38-6.11-2.14.12-.81,2.08-6.08-1.15,6.77-12.87c-5.14,5.87-7.6,12.52-16.94,12.88.14-6.55-2.13-15.87-9.4-18.55-2.87-1.06-4.85.83-6.86.23-1.49-.44-1.39-2.86-2.62-3.16-9.73-2.39-11.68,4.02-16.97,5.16-7.94,1.72-14.26-2.62-21.26,4.5-4.11,4.18-2.28,6.44-9.53,8.12-8.34,1.93-15.83.58-24.17-.49l-5.99,7.21c-9.48-1.64-22.57-8.62-13.87-18.49,2.38-2.7,6.15-.76,5.64-7.62-.3-4.09-3.64-4.24-4.4-6.64-1.02-3.2.31-7.67-.48-11.35-.71-3.31-11.3-21.46-4.8-23.31,2.93-.83,5.52,3.84,6.17,3.21.15-3.1-3.61-4.2-4.98-6.53-3.06-5.18-1.95-12.49-.54-18.04,12.83,2.92,12.94-6.33,21.3-10.38,6.12-2.97,13.52-2.65,19.91-4.71,11.25-3.64,17.07-11.07,15.21-22.59,4.09-1.11,4.02,3.02,6.77,4.29-1.83-8.33,7.51-8.26,11.32-13.41,1.75-2.37,2.25-6.66,2.94-7.1,1.1-.72,8.33-2.23,9.81-1.86,2.97.74,5.95,6.7,6.53,9.48,9.01-.59,5.69-4.92,7.47-10.54,2.57-8.12,9.58-5.4,16.21-6.62-.39-3.52-10.84-7.34-4.26-10.02,6.31-2.57,12.89,5.47,19.79,6.56,4.19.66,8.44-.05,12.63.35,3.38,7.87-3.61,7.47-5.6,10.33-.7,1.01-3.86,9.37-3.31,9.93,4.2-.3,5.57,3.42,8.61,5.25,1.92,1.16,4.53,1.3,6.46,2.45,4.42,2.64,4.85,7.08,11.48,6.4,2.19-.23,7.05-9.2,7.32-11.48.36-3.02-1.13-5.54-1.16-8.44-.12-10.31.82-15.37,7.02-24,4.1-1.11,7.48,1.95,7.83,5.7.6,6.55-5.64,6.78.54,15.5,3.5,4.95,7.37,6.2,9.85,13.19,2.61,7.35.54,17.47,2.78,22.05,1.92,3.92,10.29,4.22,11.38,5.83Z"/>
      <path class="cls-1" d="M741.99,311.5c2.31-.85,2.21-4.6,3.99-6.39,3.57-3.58,18.31-5.8,23.08-2.69,3.59,2.35,3.65,9.33,6.02,12,5.35,6.03,24.17,6.25,30.21,14.78,6.54,9.23-3.43,10.09-3.41,13.94,1.97,12.27,23.74,9.94,27.7,16.66,3.17,5.38-1.9,7.01-3.3,9.73-1.64,3.18-2.01,9.23-6.16,10.13-7.52,1.63-11.99-16.44-18.32-15.1-4.66.98-5.42,7.73-3.13,11.18,15.77-2.91,13.95,13.79,10.06,23.29-5.45,3.52-12.81-8.93-14.74-7.04.03,3.63,10.33,11.52,5.7,14.54-1.69,1.1-4.92.64-6.8-.1-1.78-.69-13.03-8.47-15.28-10.17-2.75-2.08-9.35-9.92-11.58-10.53-4.62-1.27-8.84,2.69-13.31,3.1-12.46,1.12-14.23-11.36-4.43-15.08,3.11-1.18,8.64-.54,12.07-1.34,8.99-2.1,17.33-12.15,13.55-20.93-4.14-9.61-12.73-2.82-15.99-4.67-.53-6.55,1.91-9.94-5.21-14.92s-7.68,5.27-14.67,4.1c-5.07-.84-6.76-5.52-10.42-6.05s-26.03,9.05-21.69-2.76c.63-1.72,3.58-1.5,3.26-2.26-1.85-2.36-6.89-1.37-8.46-3.77-2.62-4-.81-13.91,1.23-18.12,3.71-7.65,20.74-15.34,18.31-4.12-.65,3.01-8.37,11.22-.34,10.51,4.05-.36,2.31-4.87,3.36-7.6,3.94-10.25,14.53-13.07,23.07-5.69,1.76,4.98-5.46,10.07-4.37,15.37Z"/>
      <path class="cls-1" d="M853.62,206.1c-2.47,5.34-24.45,4.01-30.24,6.67,12.86,8.97-9.85,24.31-18.65,23.67-4.79-.35-7.75-4.41-13.64-1.2-3.5,1.9-4.61,6.92-6.79,9.65-5.52,6.88-13.19,9.62-21.97,10.81l6.8,6.91c-4.82,13.55-24.17,13.05-36.69,12.25-8.85-.56-24.31-3.01-21.03-14.4,3.3-2.12,6.61,2.35,9.06,1.19,1.56-.74,4.35-4.47,6.28-5.93,2.21-1.66,11.72-7.5,12.47-8.62,1.39-2.07-7.76-10.95-2.85-16.07l16.91,5.32-4.51-2.16c-.11-11.26,23.62-1.97,20.91-13.92-3.64,3.49-8.61,2.62-12.8,3.94-10.28,3.25-9.48,6.79-21.93,2.19-6.48-2.39-14.51-9.56-12.23-16.38,2.35-1.46,7.7.27,10.6-.67,3.25-1.05,3.2-8.99,13.52-6.04,3.31.94,3.72,5.98,9,4.98,5.8-1.09,6.59-7.79,9-8.79,5.66-2.34,11.45,1.14,17.11,1.52l1.87-4.38c5.56-1.28,5.86,6.94,10.67,6.5,3.56-.32,4.27-5.15,6.75-6.58,5.88-3.37,24.38.76,31.85,1.04,4.11.16,7.98-1.87,13.21-.73,3.16.69,8.65,6.3,7.31,9.2Z"/>
      <path class="cls-1" d="M1830.49,796.78c6.54,12.69-12.77,10.21-8.66,22.73.94,2.87,8.35,3.88,6.64,10.75-.36,1.45-6.01,2.1-6.64,3.06-.55.84-.26,3.94-1.07,5.96-1.3,3.21-4.57,5.08-5.33,6.74-1.59,3.46-2.39,15.06-7.94,16.09-8.28,1.54-6.48-3.5-11.29-7.28-2.57-.37-3.02,6.08-11.08,3.82-1.55-.43-9.57-6.31-9.86-7.81-1.06-5.44,2.78-5.39-5.16-6.9.94-7.5-6-7.12-4.97-14.47,1.11-7.95,9.55-3.98,15.65-5.07l2.53-8.33c9.15,1.82,6.62-1.39,11.31-5.9,1.99-1.91,8.06-4.52,8.65-5.21.86-1.01.74-3.87,1.63-5.43,1.29-2.28,3.22-2.25,3.96-3.2,2.34-3-.99-6.52,6.02-4.55,5.09,1.44,9.23,6.19,15.64,5.01Z"/>
      <path class="cls-1" d="M1978.75,853.51l.49,8.67c6.52.8,4.95,3.03,7.42,5.84,1.65,1.88,6.72,5.53,7.4,7.01,1.35,2.94-2.54,5.93,1.12,10.67,3.06,3.97,17.89,5.15,15.14,13.29-1.28,3.79-16.07,1.28-19.54-.53-7.2-3.75-8.53-15.35-17.26-15.91-6.85-.44-6.65,9.41-13.45,10.67-9.01,1.67-9.74-3.82-11.51-4.28-3.94-1.03-13.19,1.97-14.88.95-5.72-9.92,12.38-6.69,3.08-18.49-1.39-1.77-12.89-8.38-15.27-9.22-5.01-1.75-10.7,3.22-9.4-6.46,3.52-.4,8.44-.93,11.58-2.43,4.95-2.36,8.47-10.51,14.98-10.37,3.29.07,20.97,9.94,27.61,11.22,4.87.94,7.85-.68,12.5-.61Z"/>
      <path class="cls-1" d="M573.54,307.21c3.04-.88,14.55-5.8,16.25-5.31l4.08,7.45c1.6-6.2,3.01-8.96,8.55-3.27,2.31,2.37,2.79,6.23,6.15,7.56,1.44-3.65-1.54-8.26,1.04-11.37,2.09-2.54,8.11-1.29,11.41-1.5-.87-.89-1.56-.96-2.33-1.75l1.95-4.73c2.96-.07,10.98-.74,11.61,2.85.8,4.58-8.79,3.47-11.24,3.63,7.17,7.38.73,5.52.23,10.36-.17,1.61,5.15,10.71,6.62,11.59,2.58,1.55,8.27.74,9,5.42.58,3.18-5.93,1.04-7.93,1.63-2.58,2.34,11.49,11.9-5.22,13.82-13.78,1.59-30.78-.44-45.02,1.13-4.32-.38-7.7-4.22-10.92-5.74-2.73-1.29-17.61-3.85-9.41-9.14,2.77-1.79,10.97-1.74,14.6-2.25,1.54-.22,3.43-.41,1.7-2.1-6.99-2.9-13.3,1.45-20.22-1.2l.88-7.85,12.51-.67c-.87-5.2,3.15-5.33,5.7-8.54-5.66,1.64-12.93,2.7-18.09,4.83-12.77,5.26-20.64,20.99-34.64,5.53-6.96-7.69,1.13-8.34,5.09-13.19s4.34-13.17,9.74-16.55c3.93-2.46,3.61,2.47,7.36,2.2,3.93-9.42,6.59-1.98,9.84-.19,2.66,1.46,6.51.88,9.4,1.81,7.66,2.44,18.56,6.44,11.3,15.56Z"/>
      <path class="cls-1" d="M1428.35,935.22c-.35,2.51.08,4.99-.64,7.51-.58,2.03-2.69,1.89-2.89,2.77-.7,3.06.73,7.1-.26,10.3-.9,2.94-6.33,4.82-6.59,5.82-.86,3.32,1.88,7.6,1.14,11.51-.67,3.55-5.46,12.43-5.61,13.15-.43,2.01.66,4.99-.26,6.56-.82,1.39-15.43,8.12-18.19,7.78-2.06-3.97-3.66-2.54-7.49-3.33l2.18-13.88-5.49-.16c-5.28-9.9,8.44-12.54,10.06-21.9.02-2.34-3-2.11-3.83-3.96-.97-2.16-1.34-12.05-.57-14.11.49-1.32,2.47-1.37,2.9-2.03.67-1.03.16-2.79.9-3.95.84-1.29,4.93-2.77,5.87-5.44l4.79.12.63,3.11c3.44-2.67,5.5-5.32,6.38-9.52l4.36-.13c-2.07-4.69,3.2-6.33,3.42-7.19.52-2.01-.62-4.96.13-7.16,11.16-6.59,7.42,4.99,8.32,6.9.69,1.47,4.21,1.94,4.91,3.86,1.06,2.92,1.6,14.56-4.18,13.37Z"/>
      <path class="cls-1" d="M1121.83,431.71l.11,6.35c1.2,2,14.87-3.9,8.78,8.54l-4.35.68,8.5,4.82-.6,7.52,3.27.07c-1.76,5.47,3.77,6.18,4.48,8.15.85,2.37-.39,5.32.32,7.74l7.9,1.85c1.9,5.99,2.6,11.42-5.78,10.11-.92,3.54,5.91,2.34,2.29,5.93-4.86-.82-9.08,4.13-12.17,4.64-2.82.47-5.48-1.27-8.68-.91-4.63.52-9.34,7.11-15.36,5.36-1.96-1.77,6.76-14.35,11.29-12.89l-7.9-2.69c-.51-2.3,3.2-2.08,3.47-3.4.48-2.34-2.26-6.99-1.22-10,4.16.4,7.56-.57,10.16-3.76-3.66-6.01-9.84-3.89-14.69-7.54l2.1-3.2c-1.8-2.99-5.96-1.78-6.46-5.54-.07-2.99,6.67-2.24,3.19-8.07-2.2-3.68-6.48-1.5-7.9-2.38-2.9-1.8-.9-10.52,3.96-9.21,4.26,1.15-1.36,7.27,2.27,6.41,4.34-1.03,3.62-11.11,13.02-8.57Z"/>
      <path class="cls-1" d="M1426.81,326.27c-2,1.76-14.27,1.87-17.03,1.11-4.96-1.37-4.34-7.38-5.9-9.43-1.15-1.51-5.36-1.2-6.05-3.96-.14-.55,1.13-10.09,1.47-11.13,1.36-4.19,7.8-3.89,5.16-11.74l4.5,1.07,2.17-10.29c2.11-2.51,6.2-.82,9.14-2.05,2.15-.9,3-4.27,3.63-4.6,1.49-.79,4.67.16,6.9-.44s3.71-4.26,6.11-4.93c4.88-1.38,11.23.63,17.56-1.58,6.58-2.29,6.38-7.54,16.05-6.1,3.29.49,8.51,3.51,5.16,6.92-2.28,2.31-23.91,7.7-30.17,11.06-3.86,2.07-23.25,15.25-25.28,17.86-1.61,2.07-3.82,12.43-3.33,15.03,1.11,5.86,13.91,6.03,9.91,13.21Z"/>
      <path class="cls-1" d="M1257.15,249.56c2.99,3.43.71,9.03-3.63,9.36-1.72.13-3.56-1.09-5.52-.99-2.96.16-6.35,1.76-9.73.97l.61-7.49c-2.79-5.53-10.25,1.37-11.4,5.3-1.01,3.43.77,9.5-3.58,10.63-5.39,1.4-7.22-5.32-9.87-8.5-2.55-3.05-6.08-1.48-5.12-7.91.24-1.64,3.26-6.1,2.23-7.05-2.27-2.09-4.7,2.93-5.73,3.67-2.11,1.5-9.25,1.54-11.03.44-.59-.37-3.59-12.37-3.42-13.02,1.34-4.96,12.36-8.68,11.15.31,2.96-.18,3.69-2.67,7.27-2.19,2.89.39,3.36,3.54,6.28,3.26-.66-4.51,1.14-8.12,6.18-8.65,11.95-1.26,7.77,7.87,13.76,12.8,5.01,4.12,17.81,4.74,21.55,9.04Z"/>
      <path class="cls-1" d="M1928.85,562.81c1.74,2.63.76,6.07,1.58,8.7,1.07,3.41,7.9,8.83,6,11.58-.91,1.32-3.8,1.38-4.89,2.37-2.65,2.39,7.21,22.61-6.92,22.41.88,5.55-4.76,7.23-4.65.94l-10.55,3.29-2.99-4.36c-.23,2.23,1.01,8.86-1.74,9.64-3.83,1.09-3.84-3.46-6.17-4.28-.41,3.27-2.16,6.26-6.07,5.42-.97-.21-1.31-2.73-3.01-3.78-2.88-1.78-9.78-.87-7.33-5.93.73-1.51,11.35-8.56,13.06-9.12,2.61-.86,6.75,1.9,7.88,1.12l2.34-10.17c4.32-.13,8.01,2.22,12.18-.24-1.2-5.17,1.68-10.36,2.06-14.47.65-7-4.68-15.18,9.24-13.12Z"/>
      <path class="cls-1" d="M1030.28,367.31h1.66c4.9-9.03,8.94-1.17,15.83-.97,9.23.26,21.3-10.98,22.67,5.22.47,5.54-2.63,13.94-9.15,15.04-2.45.41-5.46-.48-7.69.22-1.92.6-4.24,6.48-7.17,7.22l-2.63-.38c-5.64-9.16-11.27-6-20.34-4.87.71-4.51,5.48-8.1,3.38-12.87l-10.15,3.22c-5.06-8.3,8.36-25.35,13.57-11.82Z"/>
      <path class="cls-1" d="M750.74,278.52c2.21,1.97,4.39,11.28.69,12.46-5.12,1.63-7.45-1.96-11.08-3.14-13.98-4.52-24.2,9.14-40.22-2.6-2.16-1.59-10.48-9.39-11.79-11.34-7.86-11.75,14.84-16.98,19.82-10.23,3.32,4.5-2.65,8.22,7.85,11.86,8.36,2.9,31.45.08,34.73,2.99Z"/>
      <path class="cls-1" d="M1862.21,822.5l2.16,6.73c-.32,1.59-4.92,4.06-6.55,4.47-1.69.42-10.98.41-12.88.18-1.6-.2-6.14-3.16-6.35-2.9l2.26,11.81c.43.44,9.13-7.64,11.16-2.51,2.24,6.55-6.95,9.37-6.7,11.55.71,4.18,5.51,7.22,6.92,10.74,1.88,4.71,1.96,11.18-5.02,9.1-1.32-.39-1.53-2.32-2.67-3.16-4.86-3.55-6.01-1.08-3.71-9.62-6.49.04.04,18.03-10.65,10.64-3.31-2.28-.83-5.5-1.95-7.27-.43-.68-4.46-.57-5.3-3.01-.52-1.52-.51-6.73-.16-8.4.75-3.54,3.73-3.04,5-4.9.33-.48,4.73-9.84,4.88-10.39.86-3.17-1.16-8.46,3.33-9.73,6.07-1.72,14.44,4.28,19.08.94,2.08-1.49,2.03-5.92,7.15-4.26Z"/>
      <path class="cls-1" d="M722.37,224.94c5.66,5.76,5.82,12.61,2.9,19.72-2.48,6.04-6.23,7.53-12.86,7.19-8.68-.44-16.5-3.96-13.4-13.32l-6.66-.12c-3.74-8.91.3-8.7,3.77-13.9,2.18-3.27,3.13-7.54,7.09-9.45,3.16-.75,16.75,7.44,19.15,9.89Z"/>
      <path class="cls-1" d="M618.95,272.68c.73.8,10.15,1.77,13.4,4.99,2.06,2.05,5.64,10.44,1.71,11.1-3.86-.41-7.81-3.85-11.43-4.02-5.16-.25-14.06,4.65-19.66,5.87-10.83,2.35-26.97,3-20.13-12.13,3.75-2.49,7.49.88,10.82.12,4.88-1.11,6.25-7.51,12.66-5.74l.12-6.33,10.07-.66c2.48,1.41,1.69,5.98,2.44,6.8Z"/>
      <path class="cls-1" d="M843.57,497.34l.65,7.43,10.87,2.78c1.71,4.68.96,8.57-.05,13.23l3.3.06c.94,10.47-6.62,15.03-11.79,4.25-3.53-.64,1.54,4.62-2.27,5.36-6.17,1.2-4.38-9.11-6.72-9.5-3.26,1.49-14.92,3.94-16.29.19-.53-1.46,1.72-10.83,2.73-12.11,1.16-1.46,4.34-2.13,6.22-3.75,4.57-3.93,4.93-12.36,13.35-7.95Z"/>
      <path class="cls-1" d="M1800.13,876.06l-1.13,5.35,5.53,1.21.14,6.32c-9.42-1.34-18.92,3.02-28.08-.16l-.19-4.14c-5.7,2.69-9.25-.26-14.21-.99-4.67-.69-12.67,1.65-13.04-4.91-.34-6.18,7.62-9.06,13.17-9.16,4.35-.08,10.29,2.93,14.93,4.05,2.37.57,5.04-.05,7.39.49s3.7,2.67,5.97,3c3.27.49,6.27-1.4,9.52-1.07Z"/>
      <path class="cls-1" d="M1111.41,469.07c-.38.57-2.69.65-3.02,1.88-.36,1.35,1.99,5.22,1.96,7.47-.13,9.72-6.74,5.93-13.4,8.56-2.93,1.16-8.68,7.45-11.81,2.73-.25-.38-.83-8.31-.67-8.95.36-1.45,4.43-1.27,3.44-3.97l-3.12-.19c-2.48-8.34,1.17-11.38,9.89-9.49l2.27-7.04c4.58.87,10.45-2.18,13.45,2.33,1.02,1.53,2.01,5.15,1.01,6.66Z"/>
      <path class="cls-1" d="M702.56,717.06c2.96-11.2-15.2-18.99-24.58-19.05-4.72-.03-8.42,2.34-12.38,3.05-1.55.28-3.36.6-2.75-1.54,1.97-3.95,7.38-7.6,11.99-8.02,2.71-.25,15.29,2.05,18.21,2.93,2.67.8,23.56,10.34,25.96,11.85,15.35,9.65-7.64,15.06-16.46,10.79Z"/>
      <path class="cls-1" d="M663.99,293.27c-.87,2.93-2.54,7.23-2.37,10.19.2,3.44,3.72,4.97,3.47,8.49-.52,7.37-12.16,12.57-17.46,7.01-1.19-1.25-1.35-3.35-2.92-4.74-1.96-1.73-7.22-2.47-8.47-4.88-1.44-1.84.4-6.99,2.42-7.43l8.35,5.29c1.27-4.26-3.27-11.1.5-14.04,4.26-3.32,11.85-1.59,16.48.1Z"/>
      <path class="cls-1" d="M1928.18,537.7c3.08,3.17,13.8,1.69,15.31,6.38,2.92,9.04-7.57,7.98-7.71,16.43h-1.67c-7.23-11.09-12.73,2.3-19.69-5.01-1.45-4.28,6.06-8.22,6.66-12.79.63-4.84-3.68-10.32-1.68-14.37,4.1-8.28,7.74,8.3,8.77,9.36Z"/>
      <path class="cls-1" d="M1830.44,742.11c-1.5-.81-4.46.32-5.33-.32-.42-2.81-1.98-5.95-1.05-8.81.75-2.32,3.88-2.28,4.72-4.21,2.55-5.82-.26-16.19,11.29-14.64,2.71.84,5.06,10.86,5.21,13.44.14,2.44-1.1,4.29-1.07,6.28.06,2.93,2.18,6.31.99,9.52-.76,2.07-8.37,3.17-10.54,2.84-3.64-.55-3.37-3.64-4.23-4.1Z"/>
      <path class="cls-1" d="M1821.94,273.62c1.82,1.41,4.24,1.45,6.46,1.4l1.05-4.91c8.78-3.4,8.84,4.39,11.94,7.06,1.56,1.35,12.09,2.63,3.26,7.37-6.47,3.47-9.53-1.1-13.48-.9-3.47.18-2.98,4.78-12.74,2.44-18.34-4.39-9.44-23.25.93-15.87,1.42,1.01,1.78,2.79,2.58,3.41Z"/>
      <path class="cls-1" d="M1849.89,784.83c-.89,4.53-4.94,5.83-9.05,6.44-.19-3.38,1.12-6.79,2.76-9.71,2.37-4.24,5.02-7.77,9.58-4.07l-.48,4.12c16.57-21.1,27.9,7.83,13.64,17.26-6,3.96-11.69-11.51-16.45-14.03Z"/>
      <path class="cls-1" d="M1242.56,222.69c4.21-.06,8.79,2.74,13.28,2.97,5.93.3,23.39-5.21,14.67,5.36-9.53,11.56-39.99,14.04-35.14-6.53.6-.79,5.89-1.79,7.18-1.8Z"/>
      <path class="cls-1" d="M584.68,256.92c2.07,3.93,1.59,8.62-.93,12.28-1.95,1.29-5.4-1.67-9.05-.09s-5.32,8.73-11.01,9.96c-4.79,1.04-11.06.06-15.12-2.64-3.82-10.94,8.29-9.78,15.9-12.71,4.37-1.68,16.21-9.19,20.21-6.8Z"/>
      <path class="cls-1" d="M645.66,266.66c.82.45,2.4,5.36,4.18,6.19,4.93-6.63,18.67-9.19,18.74,1.63.07,10.08-9.64,12.58-18.68,11.2-5.43-.83-16.84-15.36-10.81-18.72,1.36-.76,5.27-1.02,6.57-.3Z"/>
      <path class="cls-1" d="M1913.03,468.36c-3.06,9.63,9.74,15.35,11.44,20.8,1.24,3.97-5.24-1.38-4.48,2.1,2.14,6.13,8.85,10.83,7.82,17.67-2.34,1.56-14.34-1.19-14.71-2.78,2.75-6.85-.74-7.39-2.16-11.67-1.23-3.69-7.32-26.64-5.66-28.42l7.75,2.29Z"/>
      <path class="cls-1" d="M751.33,717.97c1.12,1.34,6.98,2,7.51,4.17-1.35,8.02-8.22,3.65-13.03,3.75-6.44.14-25.93,4.72-26.23-4.09-.14-4.13,9.19-1.97,12.22-2.47-4.73-6.15,1.17-11.27,8.87-8.95.77.23,8.82,3.86,9.24,4.15,1.17.81.78,2.67,1.42,3.43Z"/>
      <path class="cls-1" d="M700.15,294.35c-1.46,4.89-9.47,12.36-14.4,13.69-1.71.46-5.57-.01-5.9.3-1.3,1.21.98,9.92-10.23,5.3,1.98-5.84.16-14.43,5.71-18.71,6.67-5.15,17.27-2.32,24.82-.57Z"/>
      <path class="cls-1" d="M1965.09,1103.68c.35,1.69.85,3.31.46,5.06-.2.89-5.72,12.38-6.29,12.84-1.94,1.61-12.74,2.05-15.09.35-5-6.24-2.26-12.95.81-19.29l20.11,1.04Z"/>
      <path class="cls-1" d="M1597.49,214.11c2.37,2.17,5.04,9.59,3.12,12.63-.61.97-15.05,6.57-16.95,6.49-4.9-.19-14.93-8.77-10.29-11.96,1.86-1.27,5.75-1.22,8.64-2.54,4.42-2.02,9.44-10.14,15.47-4.62Z"/>
      <path class="cls-1" d="M649.13,252.61c-1.98-1.24-9.48,1.46-11.79-5.45-3.83-11.46,15.12-8.49,20.93-4.83,4.13,2.6,11.95,13.62,3.5,16.1-13.37,3.92-10.83-4.69-12.64-5.82Z"/>
      <path class="cls-1" d="M722.67,387.62c-9.88,0-10.92,8.08-18.36,10.57-4.35-.51-7.94-9.34-7.55-13.07,1.3-12.24,27.57-10.54,25.9,2.5Z"/>
      <path class="cls-1" d="M1614.88,237.37l3.11.16-.36,5.36c-7.36,2.87-18.54-.2-25.22-4.06-.86-.5-1.84-.19-1.5-1.89l1.16-3.3c7.41,1.1,7.14-6.83,13.01-6.99,6.7-.18,10.38,4.77,9.8,10.72Z"/>
      <path class="cls-1" d="M1631.45,234.5c.45.26.67,2,2.1,2.75,4.25,2.23,13.63-.22,8.85,9.85-3.1,6.53-20.9,6.78-22.06.52-.83-4.45,6.55-15.71,11.11-13.12Z"/>
      <path class="cls-1" d="M1600.79,775.28c9.51-2.87,17.79,24.04,3.07,24.56-9.23.32-8.2-23.01-3.07-24.56Z"/>
      <path class="cls-1" d="M832.73,1182.69c2.55,1.48,9.55,1.87,5.34,6.22-1.07,1.11-7.95,3.57-9.74,3.72-2.19.18-6.74-1.14-7.04-.93-.64.45-1.71,5.71-4.11,3.11-2.12-2.29-2.81-8.8-.12-10.83l10.79-1.08.07-3.11c3.83-1.15,3.71,2.25,4.83,2.9Z"/>
      <path class="cls-1" d="M686.24,257.5c-9.71,6.75-19.67-10.3-8.41-14.95,11.48-4.74,14.15,10.96,8.41,14.95Z"/>
      <path class="cls-1" d="M1881.44,614.26c1.82,5.48,3.47,13,2.35,18.69-1.36,6.84-11.34.11-6.78-5.89l-4.97,2.09-3.94-5.72c4.85-2.91,6.92-10.26,13.34-9.17Z"/>
      <path class="cls-1" d="M642.64,343.57c-1.08-6.94,4.76-15.09,12.57-11.43,13.79,6.46-2.69,17.22-12.57,11.43Z"/>
      <path class="cls-1" d="M617.3,240.99c2.17,1.66,3.83,5.26.68,6.99-2.45,1.35-19.62,4.97-20.65,1.69-1.96-6.24,13.58-13.57,19.97-8.68Z"/>
      <path class="cls-1" d="M1829.12,674.36c6.45-1.05,10.2,25.76-1.35,19.29-7.13-4-5.17-15.49,1.35-19.29Z"/>
      <path class="cls-1" d="M1879.14,283.49c-8.73,2.32-25.32,2.81-23.6-9.54,2.93-.25,3.35,2.81,6.27,3.24,6.56.97,20-6.66,17.33,6.3Z"/>
      <path class="cls-1" d="M1830.39,762.56c2.97,3.02-2.76,12.67-4.8,15.85-2.09,3.26-3.78,7.38-8.48,7.49-1.69-4.08-1.44-9.61,1.26-13.28,1.72-2.33,5.33-2.95,6.31-4.2,1.23-1.58.7-5.06,2.56-6.73.63-.62,2.81.51,3.16.87Z"/>
      <path class="cls-1" d="M1768.14,707.67c8.98-2.24,6.57,20.85-5.72,16.91-5.48-1.76.82-15.68,5.72-16.91Z"/>
      <path class="cls-1" d="M616.49,252.47c2.63,10.43-11.18,9.35-18.08,13.95-.44-4.65,0-8.63,2.44-12.7l15.64-1.26Z"/>
      <path class="cls-1" d="M1883.68,817.15c2.38,6.87.99,13.49-1.1,20.19-5.61,1.29-11.47-6.1-8.38-10.65.62-.91,2.69-1.16,3.35-2.17,1.19-1.83.51-5.29,1.88-7.34l4.26-.03Z"/>
      <path class="cls-1" d="M2017.19,859.95c2.26,10.16-6.68,17.14-16.7,12.63-3.88-7.77,6.49-6.16,8.59-7.44,1.29-.79,1.09-7.37,8.11-5.19Z"/>
      <path class="cls-1" d="M1847.34,891.91c-2.02,1.7-8.34,2.34-11.03,1.32,2.75,6.34-3.69,6.78-9.04,6.43.39-4.18,3.36-7.13,7.91-6.44l-1.14-6.43c4.91.26,10.96-1.36,14.61,2.66-.64.63-.77,2-1.31,2.46Z"/>
      <path class="cls-1" d="M678.37,277.37c16.71-3.41,8.34,18.34-5.47,7.87-2.15-2.79,2.38-7.24,5.47-7.87Z"/>
      <path class="cls-1" d="M1930.15,840.65c-.22,8.74-8.37,9.22-15.83,8.57.72-12.64,4.89-11.36,15.83-8.57Z"/>
      <path class="cls-1" d="M1847.2,746.31c12.15-4.08,19.52,18.45-1.9,7.92-1.71-1.37.01-7.29,1.9-7.92Z"/>
      <path class="cls-1" d="M869.38,333.18c8.79-2.56,18.9,6.66,3.8,8.97-12.72,1.94-7.81-7.8-3.8-8.97Z"/>
      <path class="cls-1" d="M681.82,229.12c.83.72.9,2.05.8,3.08-1.11,10.89-18.28,7.17-11.6-4.15,1.9-1.78,8.98-.51,10.8,1.08Z"/>
      <path class="cls-1" d="M703.28,719.56c4.3-.48,11.91,2.42,8.77,7.33-4.08,4.92-19.74.38-13.56-5.35,1.09-1.01,3.29-1.81,4.79-1.98Z"/>
      <path class="cls-1" d="M758.6,360.57c-1.21,1.36-8.53,4.73-9.83,3.53.07-4.02-1.29-10.33,3.41-12.35,5.52-2.37,9.95,4.84,6.41,8.82Z"/>
      <path class="cls-1" d="M1841.61,755.09c3.07,3.21-1.96,6.25-5.34,5.71-9.71-1.56-9.43-12.68-1.67-11.44.7.11,6.19,4.87,7.02,5.74Z"/>
      <path class="cls-1" d="M1194.02,581.82l-5.62-.47c-1.05-2.64-2.1-11.44.07-12.84l6.83-1.56-1.28,14.87Z"/>
      <path class="cls-1" d="M1101.2,320.36c4.56,4.37-2.27,13.77-8.48,10.22-4.11-4.46,3.17-15.31,8.48-10.22Z"/>
      <path class="cls-1" d="M1434.64,325.77c4.91,0,12.17,8.94,1.07,8.17-13.04-.9-9.63-8.16-1.07-8.17Z"/>
      <path class="cls-1" d="M1881.54,856.73c-1.87-6.74,10.08-9.24,13.65-4.91,1.48,1.8,3.57,7.6-.95,6.29-4.89-1.42-6.33-3.73-12.7-1.38Z"/>
      <path class="cls-1" d="M1228.11,346.92l-1.33-7.4c-7.82.02-2.5-11.26,3.66-7.16,1.84,1.22,2.41,13.91-2.33,14.56Z"/>
      <path class="cls-1" d="M1387.2,334.19c5.86-.8,6.97,6.23,1.88,9.41-9.31,5.81-9.46-8.38-1.88-9.41Z"/>
      <path class="cls-1" d="M747.62,349.07c-7.15,1.42-7.67-12.95-1.66-12.93,5.36.02,3.26,10.33,1.66,12.93Z"/>
      <path class="cls-1" d="M576.78,276.24l.19,8.79-3.85,1.59c-6.55-3.57-4.63-14.22,3.65-10.38Z"/>
      <path class="cls-1" d="M765.41,720.66c10.46-2.17,8.73,7.98.99,7.28-6.04-.55-7.47-5.93-.99-7.28Z"/>
      <path class="cls-1" d="M1851.98,768.58l-7.6,1.09c-2.04-3.28-.69-6.12-.14-9.53l7.41,2.08.33,6.37Z"/>
      <path class="cls-1" d="M1196.44,554.07c2.16,5.81-2.85,17.63-7.06,8.28-2.42-5.37,5.81-9.5,7.06-8.28Z"/>
      <path class="cls-1" d="M1330.97,604.52c.55,6.19-7.49,6.65-12.43,6.44v-5.38s12.43-1.06,12.43-1.06Z"/>
      <path class="cls-1" d="M1285.76,598.06c-4.86.85-13.42,3.19-14.69-3.2,5.24.94,15.18-4.81,14.69,3.2Z"/>
      <path class="cls-1" d="M1866.84,759.07c.94,5.3-3.74,8.37-8.55,5.43l-.38-4.26,8.93-1.17Z"/>
      <path class="cls-1" d="M1889.03,619.67c7.55-2.44,7.81,5.69.98,7.43-3.69.04-4-6.46-.98-7.43Z"/>
      <path class="cls-1" d="M1827.12,884.79l1.28,6.29-7.43-.99c-2.04-4.85,1.5-6.29,6.15-5.3Z"/>
      <path class="cls-1" d="M1136.52,414.54l-.18,6.81c-6.77,6.58-8.23-9.24.18-6.81Z"/>
      <path class="cls-1" d="M1858.92,894.31c1.74,4.5-8.12,9.11-8.86,4.86-.71-4.11,5.35-5.52,8.86-4.86Z"/>
      <path class="cls-1" d="M1860.05,848.15v-3.21c2.08.15,12.42-.87,12.42,1.61-3.07,3.09-8.47,1.11-12.42,1.61Z"/>
      <path class="cls-1" d="M1220.18,337.27l-1.06,4.89-6.85.47c-.51-4.87,3.59-5.89,7.9-5.36Z"/>
      <path class="cls-1" d="M1884.92,844.94c.07,4.59-5.7,3.05-9.03,3.2l.5-3.27,1.37-.9,7.17.96Z"/>
      <path class="cls-1" d="M1857.63,767.8c1.27.76,1.41,4.02-.35,5.31-6.81,4.98-6.27-9.28.35-5.31Z"/>
      <path class="cls-1" d="M1490.37,285.75c.62,2.93,1.42,6.79-2.8,7.51-3.4-2.94-2.27-8.45,2.8-7.51Z"/>
      <path class="cls-1" d="M1352.45,521.88c1.69,1.38-8.41,7.37-9.53,8.65-7.96,9.17,2.12,7.88,7.83,12.81,2.29,1.98,3.84,5.72,6.79,7.54,4.12,2.54,12.05,1.03,11.97,10.19-.07,7.41-12.96,6.72-18.49,5.64-.65-.13-10.52-3.29-11.03-3.58-2.28-1.33-1.98-5.65-7.32-5.94l-22.71,5.38-18.02,1.19c-2.5-4.29.96-7.17,1.66-10.28.49-2.16-.21-4.42.57-6.97.71-2.34,4.3-5.22,4.03-8.52l2.8,3.19c6.88-3.34,7.02-11.72,8.6-18.11l5.54-.12.13,7.4,5.52,1.21c1.11,5.27-7.23,5.61-7.94,10.17-.45,2.25.93,1.49,2.48,1.92,7.7,2.17,15.98-1.76,23.09-4.56l-.84-4.18c-3.14-.31-8.58.64-9.99-2.85-1.01-2.49,3.9-1.51,5.4-2.91.98-.92.9-3.53,1.52-3.91,1.14-.7,6.66.19,9.24-.36,2.82-.6,4.94-4.06,8.7-3Z"/>
      <path class="cls-1" d="M1431.59,534.74c-5.29-.67-11.97.19-10.15,6.43l-5.57,1.71,3.24,9.62,9.73,1.49,2.19,8.64,2.33-5.41,6.03.19c1.18,3.77,1.72,6.84.11,10.6-4.04.11-3.19-5.53-7.9-4.28l6.86,29.34-10.82,5.67c-2.98-.01-14.51-8.5-16.13-11.11-3.43-5.49.43-4.01,1.8-6.35,1.11-1.89.88-5.87,1.57-6.6.88-.94,5.26.19,4.12-3.81-2.79-4.05-7.08-4.53-10.49-8.31-2.97-3.29-11.08-16.76-10.8-20.78.33-4.75,7.9-9.05,11.35-11.83,1.24-1,1.71-2.86,2.51-3.48,4.6-3.56,11.09.07,14.91-.32,1.19-.12,6.69-4.34,5.81.07-.57,2.85-2.82,4.73-.69,8.51Z"/>
      <path class="cls-1" d="M1489.23,525.1c.64.65-.06,7.89.49,9.69.73,2.41,3.03,1.97,2.96,2.66-.16,1.56-1.81,2.37-1.99,3.36-.49,2.65,3.36,7.64-3.11,8.94-4.09.09-6.3-6.54-11.37-3.49l-1.12-.72-.6-11.2,5.58-1.88.14-7.38,9.04.02Z"/>
      <path class="cls-1" d="M477.43,521.87c-1.18-.8-4.79-4.55-5.14-5.38-.54-1.25,1.79-2.11,1.61-3.56-.2-1.54-3.95-3.64-3.22-6.09,6.03,3.17,7.41,8.86,6.76,15.03Z"/>
    </g>
  </g>
</svg>