<?xml version="1.0" encoding="UTF-8"?>
<svg id="Livello_1" data-name="Livello 1" xmlns="http://www.w3.org/2000/svg" viewBox="0 0 2000 1400">
  <defs>
    <style>
      .cls-1 {
        fill: #2e3192;
      }
    </style>
  </defs>
  <g id="ZDmcxL">
    <g>
      <path class="cls-1" d="M1807.39,797.56c-14.77-17.8-17.12-19.74-19.43-43.97-.36-3.81.81-9.87,0-12.84-.19-.69-7.37-5.79-9.61-10.25-3.7-7.34-3.08-15.95-5.52-21.87-.98-2.38-4.69-2.42-5.46-5.16-1.59-5.68,7.41-19.13-2.1-25.3-4.34,5.84-8.78,13.88-16.32,7.31-2.43-7.55.05-13.76-3.12-21.76-3-7.59-19.65-20.52-20.05-26.97-.15-2.45,2.95-6.84-.7-8.46-1.51-.67-5.51,5.89-7.78,6.53l-.62,6.58c-3.75.91-13.88-2.37-16.26,1.26-1.55,2.36.15,6.89-.79,9.73-.51,1.54-2.73,1.75-3.22,2.58-6.82,11.5-4.1,4.68-12.11,10.73-2.33,1.76-2.95,5.12-5.26,6.48-10.02,5.88-4.55,2.91-10.92,11.25-3.62,4.73-13.12,8-14.32,10.46-2.87,5.91,5.33,16.65,2.4,23.34-.7,1.6-3.01,1.53-3.1,2.4-.29,2.73,2.38,5.17,2.67,7.84.53,4.78-10.35,23.9-17.44,22.88-5.1-.49-7.17-15.75-9.15-21.01-5.64-15.01-13.73-27.92-19.72-41.71-6.78-15.61-2.62-28.88-5.55-44.92-6.63,6.74-11.07,9.41-19.86,3.72-8.99-5.83-4.46-12.15-4.87-12.77-.33-.49-7.17-7.08-8.28-8.03-4.33-3.71-11.76-4.44-12.45-11.7-1.38-1.04-12.22,4.02-17.17,2.34-3.7-1.26-4.8-15.12-9.41-2.32-9.1-2.48-29.1,4.82-33.24-5.68-1.64-4.17.18-8.73-4.22-11.47l-4.09,6.34c-7.24-.05-15.44,2.21-21.26-3-3.25-2.91-1.62-6.29-8.99-4.65l-.16-5.08c-8.2-.13-3.9-10.19-8.25-14.59-4.66,6.54-9.66-1.42-14.89.62,4.06,10.09,11.28,19.28,19.37,26.32,2.27,1.98,7.39,3,8.52,5.88,1.65,4.19-4.93,10.84,8.31,13.87,14.78,3.38,18.24-18.2,23.39-13.9.34,13.82,5.77,15.13,18.16,15.75l-.76,5.25c1.86,3.68,8.33.04,6.98,10.8-1.31,10.47-7.08,7.14-8.94,9.72-2.49,3.44.15,13.9-3.1,17.55-1.68,1.88-4.86.95-7.11,1.98-.52.24-8.91,5.33-9.53,5.77-1.93,1.36-1.91,5.91-4.77,7.32-3.42,1.68-7.99.06-12.33,3.26-4.76,3.51-2.68,8.57-3.25,9.17-.5.53-11.42,1.15-14.25,2-3.6,1.09-5.69,4.48-6.07,4.56-4.33.98-10.23-.88-14.98.35-9.34,2.42-14.72,23.73-25.61,9.54-6.39-8.33.37-18.58-1.83-25.66-1.07-3.46-5.29-5.61-7.04-8.67-1.9-3.33-1.82-7.01-3.18-9.91-3.79-8.07-10.02-12.64-14.11-19.83-4.82-8.48-5.53-17.78-10.38-26.23-3.2-5.57-12.01-12.42-13.32-15.38-1.52-3.43.16-8.65-.86-10.29-.66-1.05-7.73-1.09-6.3-6.74l-2.03,2.73c-7.55.13-7.97-8.74-13.49-11.92-.52,13.97,25.5,32.25,24.74,42.66-.33,4.53-4.73,5.88-1.76,12.15,1.79,3.78,6.86,3.62,9.25,7.68,2.87,4.86,2.23,13.83,5.5,20.68,4.26,8.92,10.88,13.49,13.78,24.14.43,1.56,0,5.02.4,5.46.5.53,5.83-.5,8.26,2.79.56.75,7.76,16.07,7.97,16.99.63,2.7-1.03,5.8-.65,6.37s10.04,6.64,11.58,7.38c5.22,2.52,16.44,5.94,21.67,3.63,2.35-1.04,4.04-4.09,6.74-4.99,2.53-.85,5.33-.17,7.82-1.27,3.01-1.33,5.09-8.56,10.4-5.25l7.54,11.63-14.25,26.21c-3.18,20.72-18.57,35.39-33.45,48.8-10.45,9.41-7.9,5.83-16.3,17.62-2,2.81-12.87,14.49-13.25,15.45-2.93,7.32-1.02,16.47-5.46,24l3.98.72c.03,7.99-.88,16.84,1.54,24.54.65,2.08,3.01,2.89,3.53,5.61,1.05,5.42,2.47,24.1,2.65,30.23.27,9.34-3.24,9.25-6.83,15.42-.78,1.34-.71,4.34-1.13,4.71-1.22,1.09-7.83-.89-9.97.42-.61.37-.89,2.74-2.11,3.7-1.51,1.2-4.55,1.33-5.33,2.53-1.37,2.08.29,5.98-1.76,8.72-1.87,2.51-8.06,2.11-11.04,7.19-6.01,10.24,1.43,14.07,1.8,20.3.14,2.36-1.28,5.09-1.38,7.81-.1,2.68,1.41,6.1,1.11,7.71-1.1,5.86-11.2,8.36-16.47,8.75-.25,6.52.57,18.36-2.84,24.03-1.97,3.28-6.57,1.44-8.25,4.77-1.64,3.27-.71,10.92-3.16,14.84-1.55,2.49-11.9,7.03-13.99,9.14-2.4,2.42-3.38,11.26-7.71,12.53-2.76.81-6.13-.04-9.52.86-4.95,1.31-8.33,7.58-13.6,7.39-2.87-.1-1.93-3.15-4-3.88-2.93-1.03-7.98.25-11.3-.25-4.8,14.69-19.96,9.76-26.32-1.07-6.42-10.93-.45-6.87,2.13-15.92-7.59-.85-8.26-6.07-6.57-13.03-7.8-.58-4.52-6.17-6-11.55-1.65-6-3.28-12.93-10.76-10.87-.34-2.37.92-4.68.81-6.99-1.15-25.42-4.19-37.46-16.11-59.54-1.24-2.3-4.91-5.1-5.15-6.45-.13-.71-.31-11.95-.36-14.25-.23-12.67,5.1-14.31,10.1-23.99,1.32-2.56,1-6.35,1.97-7.86,1.03-1.61,5.34-1.15,4.88-6.16-.21-2.33-4.2-6.62-4.91-10.9-.74-4.46.46-9.5-.87-13.56-1.35-4.12-8.65-5.17-3.32-14.33l-3.98-.7c-1.36-5.04,3.67-8.51,1.13-12.78-5.88-5.07-10.57-11.15-15.92-16.75-1.45-1.52-4.58-2.8-5.22-3.9-1.61-2.79.25-8.38-3.22-11.16,12.41-4.79,5.91-9.45,6.38-18.32.18-3.45,3.89-9.77,2.43-12.27-6.73-5.44-14.82-4.55-22.38-6.88-13.97-4.29-5.63-10.01-10.43-15.69-2.23-2.65-13.63-1.29-17.27-.4-6.06,1.48-15.88,9.72-21.64,10.89-8.97,1.83-22.65-5.31-32.23,1.49-2.68,1.91-3.26,5.96-7.25,7.18-13.46,4.09-20.52-18.81-26.67-24.33-2.52-2.27-7.97-2.46-8.24-2.8-.83-1.05.66-5.16-.29-6.29-.41-.49-3.62-.14-5.13-2-1.28-1.58-1.04-4.61-2.43-6.74-1.73-2.66-6.11-4.97-7.66-7.99-3.23-6.27-.43-15.36-11.83-13.62l3.25-14.42c-2.41-4.42-6.06-7.06-11.02-7.91,5.24-5.13,12.23-8.06,13.96-16.7-.83-16.14-5.86-32.96-1.68-48.91.92-3.49,5.12-4.82,1.97-10.47l5.19-.02c-5.47-14,4.98-11.23,8.91-17.87,1.91-3.22,2.48-8.56,2.76-12.32l9.08.73c2.9-9.54,12.52-8.66,14.16-18.52.74-4.45.32-19.16,2.55-22.11,1.11-1.47,4.43.64,4.72-4.8l10.94.09c-1.36-7.91,6.78-12.14,7.8-19.68h1.91c2.31,3.09,17.44,8.7,20.54,7.95,1.73-.42,2.22-6.3,3.8-7.61,2.11-1.75,7.75-1.04,10.38-1.96,2.45-.85,3.34-3.7,6.87-4.96,3.93-1.39,7.58.54,11.46-.03,3.6-.53,6.03-3.38,10.45-3.93,7.78-.98,17.67,1.48,24.49.93,4.26-.34,5.99-4.52,11.53-3.31.54.12,8.77,3.99,8.83,4.48.24,1.99-1.24,4.32-1.03,6.29.34,3.26,3.59,6.42,2.27,11.76l-5.95,3.44v4.07c5.25.83,5.18,5.36,9.76,7.16,4.86,1.9,19.43,1.43,21.44,4.57.98,1.54-.04,4.3,1.38,5.4,2.04,1.57,7.52,1.11,10.16,1.08.83,6.93,10.51,6.3,16.28,6.64-4.11-9.35,5.28-24,15.94-20.72,2.46.76,4.14,4.59,7.03,5.99,6.07,2.94,14.36-.82,13.32,9.49,11.31-2.92,16.92-2.27,24.6,6.55l1.38-7.8c9.67-2.79,21.91,6.55,28.26-2.24,7.79-10.79,10.1-24.29,7.97-37.2-10.73.73-18.47,3.93-27.66-3.71l-10.62,5.9c-3.03-4.49-12.42-7.13-14.93-10.65-2-2.8-2.73-9.39-3.94-12.83-.47-1.34-2.74-.64-2.53-2.86s2.19-5.2,3.42-7.22l8.3-9.29c-4.24-.22-6.93,3.58-11.17,3.89-4.84.35-8.32-4.54-12.2-.63-2.93,2.95,3.5,8.18-7.5,7.44l-1.59,4.27c-.04,1.13,12.93,4.06,10.43,9.95l-7.77.02,1.24,7.81c-6.95,1.53-14.84,3.1-13.03-6.44l-3.76-.06v-3.93s6.47-1.3,6.47-1.3c-9.01,1.52-6.39-2.91-8.99-6.98-.95-1.49-3.43-1.56-4.56-3.57-.95-1.68-.55-4.16-1.92-6-2.92-3.91-5.64-.77-3.22-11.03-7.68-1.98-9.72-8.64-15.05-12.41-2.27-1.6-6.48-2.04-7.86-3.87-1.42-1.89-.68-4.62-1.43-5.74-.71-1.06-4.36-.9-5.56-2.91-1.77-2.96,0-10.59-6.74-11.6-3.14-.47-5.99,6.79-5.38,9.37.47,1.99,4.17,4.04,5.53,6.28,3.12,5.14,7.72,16.21,13.76,18.96,3.28,1.49,6.38-1.31,7.78-.17,1.14.93,1.33,3.91,2.54,5.38,1.74,2.1,18.71,14.37,10.95,16.38-3.58,1.24-8.01-6.32-10.32-2.62.47,7.72,1.67,15.59-8.42,15.77l1.3,9.17c-5.39-.67-14.81-2.1-15.53-8.55-.5-4.48,10.86-.41,12.81-2.09l1.26-12.81c-7.34-.62-2.51-7.04-10.14-5.46,1.04-7.99-4.44-5.89-9-8.61-3.39-2.02-13.93-10.14-15.34-13.34-1.98-4.49-.21-12.18-7.44-12.18-3.27,0-1.57,1.67-2.04,3.85-10.6-1.58-7.8,2.13-13.71,7.83-6.85-3.5-11.46-6.73-19.77-4.93-1.8,3.02.33,7.93-.73,10.31-.41.92-11.87,14.92-12.72,15.45-1.35.83-3.64.17-5.56,1.56-1.65,1.19-3.5,5.91-5.65,7.51,10.4,13.01-1.37,12.52-4.55,17.61-1.27,2.03-.48,5.7-3.3,7.15-3.8,1.96-12.62-.13-17.45.7-1.98.34-3.38,2.19-5.35,2.53-9.3,1.64-7.45-6.82-10.43-7.76-1.39-.44-6.9,1.63-10.24,1.32-9.14-.86-4.36-9.87-5.99-11.74-.66-.76-6.19-.14-6.27-4.73-.09-5.02,8.14-9.19,8.52-11.78.22-1.56-.97-5.3-.88-7.96.27-7.76-.93-9.27-1.22-14.53-.15-2.79,3.22-6.04,2.88-9.46,14.89-5.18,28.78,4.22,43.7,3.57,2.97-5,.09-12.97,1.59-17.47.69-2.07,5.84-2.03,3.7-4.71-.16-.2-2.31-.06-3.18-1.33-1.99-2.92-.4-6.67-5.21-10.53-6.04-4.85-15.22-1.99-12.2-12.96l16.71-4.08-1.25-6.02,1.91-3.16,10.94,3.86.2-3.64c8.02,1.77,9.26-10.11,12.37-12.15,3.46-2.25,9.33-.61,13.2-1.39,3.4-2.16-4.36-17.67,7.94-12.93.13-8.4,14.22-6.42,20.62-9.33.48-4.11.28-10.45-2.41-13.7-1.33-1.6-4.3-1.99-5.02-4.1s-.77-10.46,1-11.69l9.3-1.34,1.27-4.94-3.97-2.84,1.24-3.94,9.09-.62c.86,2.34-2.3,3.44-2.28,4.59.01.89,3.12,3.14,3.91,4.92,4.41,10.02-10.18,14.08.41,28.44,5.79,7.85,8.2.63,14.29.1,2.94-.26,5.05,1.54,8.3.77,4.19-.99,8.8-6.83,13.73-7.32,5.91-.59,11.25,5.51,17.9,1.16,1.53-1,7.78-15.5,8.26-17.87.95-4.7-1.11-12.23,1.57-15.48,6.09-7.38,9.69,17.65,16.86,2.67-.51-2.23-14.33-4.34-3.89-14.47,8.14-7.9,13.84-5.93,23.32-1.96.82-4.4-2.4-7.41-4.76-10.58-11.63,2.31-14.82,11.7-28.08,3.82-7.94-4.72-13.06-25.25-8.41-33.05,2.49-4.17,18.33-5.41,15.37-17.91l10.34,1.29c.45-8.59-16.1-11.94-20.43-7.56s-1.39,13.83-2.17,15.44c-.79,1.62-7.1,5.07-9.19,6.58-1.12.81-1.44,3.04-2.25,3.57-5.12,3.33-11.6-.74-13.66,11.86-2.02,12.37,10.71,15.49,11.36,24.75.81,11.63-9.66,11.42-12.31,17.61-1.33,3.09,1.68,5.5.09,9.09-.26.59-7.12,9.57-7.59,10.1-.73.81-8.07,7.42-8.6,7.65-1.63.71-5.65-1.74-7.64-2.14l-.35-10.22c-6.26.59-5.3-9.68-7.75-15.04-7.89-17.27-20.14,3.15-32.91.52-4.75-.98-2.3-4.17-3.55-6.9-.99-2.16-3.4-3.26-3.53-5.5-.16-2.75,3.3-6.54,2.51-9.85-8.49,2.49-7.76-17.09-6.24-19.54.36-.58,3.67-.98,4.96-2.17,7.87-7.2,4.62-3.76,13.29-7.57,3.65-1.6,5.85-6.11,11.31-4.95l.6-7.93c10.49-1.39,7.15-3.45,10.56-8.99,1.34-2.17,3.37-3.02,4.54-5.9,3.84-9.38.71-5.59,7.07-13.8,3.57-4.61,8.79-13.99,14.52-15.51,2.77-.73,5.89.13,8.46-.62,5.52-1.61,10.37-5.01,16.35-5.1-1.95-6.94,6.83-6.31,6.74-9.68-.17-6.27-6.23-4.67-6.59-9.84,6.64.63,7.32-4.92,9.09-6.57,3.56-3.32,1.61,6.56,4.52,7.86l3.87-5.24c1.25,4.22,8.32,8.29,8.45,1.95.02-.71-5.73-1.84-3.9-5.87,7.19-2.78,7.49-2.67,12.94,2.61-.02-3.94,1.04-5.97,5.19-5.24-1.85,14.88,9.38,1.29,12.07,1.52,1.42.12,7.48,3.7,8.1,5.04,1.05,2.26-2.53,6.09,1.32,7.77,19.31,4.78,35.69,17.43,53.75,25.62,6.67,5.59-1.35,15.48-7.81,17.17-8.78,2.3-16.67-.05-24.66-3.31,2.11,6.63,2.91,14.07,6.69,20.12,2.16,3.46,12.48,14.76,12.75,6.14-4.44-.39-7.97-3.58-7.61-8.29,2.45-5.62,13.44-5.93,16.11-.87,1.06,2.01-1.57,8.41,2.34,7.63,11.07-5.24-.87-8.54-1.64-11.15-.75-8.89,7.98-6.54,11.2-8.67,1.12-.74,1.33-4.14,3.72-4.63,3.1-.64,11.9,4.89,13.47,3.66l-8.66-24.3c11.82-10.96,19.47,2.98,19.09,15.06,8.63,1.29,11.99-8.33,18.46-12.02,2.77-1.58,20.97-8.4,22.72-7.36.64.38,1.67,4.34,3.48,4.98,4.01-9.86,11.04-2.4,16.59-4.09,3.06-.93,3.5-7.84,10.45-6.48,3.04.59.49,10.77,4.04,9.28,9.06-6.48-1.64-9.41,1.23-17.14,2.93-4.19,26.18,1.88,30.84,4.38,6.57,3.53,7.79,8,12.26,12.46,3.61,3.61,6.48.84,5.03-3.67-2.79-8.66-16.96-15.71-15.02-28.1.82-5.22,6.48-4.5,7.85-6.98,3.51-6.37-2.22-24.05,12.34-23.99,12.27.05,13.7,26.54,16.19,36.07,1.28,4.89,1.92,9.73,3.08,13.94,2.04,7.36,10.2,17.28,2.75,24.93-2.52,2.58-6.54,2.14-9.68,3.37-10.02,3.93,1.77,8.96,9.04,6.48,8.41-2.87,9.75-23,12.82-25.06,4.27-2.87,12.48.08,14.97,4.64,3.83-6.51-5.73-14.35-11.47-13.15-.94.2.14,3.62-6.7,2.73-9.54-1.24-4.32-11.35-6.36-18.56-.89-3.15-4.06-2.45-4.65-5.74-.67-3.72-1.27-25.29,6.58-19.81,3.03,9.53,3.49,19.48,14.85,23.03,4.33,1.35-.49-5.48-.68-7.31-.7-6.78,3.36-9.7,9.72-8.43,4.43.89,3.19,4.82,4.86,6.25,1.97,1.67,7.97.77,10.79,2.85,2.83,2.09,3.14,9.62,8.32,9.28-.2-4.78-4.85-14.43-9.11-16.35-2.26-1.02-5.46-.14-7.1-1.99-1.67-1.88-2.83-12.09-1.64-14.19,9.65-6.92,21.25-3.81,32.11-2.9,1-10.3-11.01-3.26-7.55-15.53,11.53-5.9,22.93-9.41,36.08-8.07v-6.56c8.36,4.25,13.84-5.73,17.51,3.96,9.4-8.51,17.83.75,27.84-2.67l-3.97-3.34c6.11-9.11.85-17.44,14.99-17.75,12.53-.27,13.55,13.62,20.06,15.35,3.75,1,3.98-2.72,6.57-4.03,4.39-2.23,18.03-1.23,21.9,1.33,1.53,1.01,2.55,4.13,4.59,5.85,5.83,4.92,11.83,1.95,9.45,13.45-2.52,12.15-20.16,14.16-28.63,20.87-2.01,1.59-5.06,3.25-4.75,6.33.81.8,16.89-8.59,20.15-9.11,8.31-1.32,31.25-.9,40.14-.13,12.17,1.06,22.13,8.28,33.56,11.77l4.16-10.53c7.59-1.9,18.58-2.47,25.55,1.63s10.29,14.56-.45,14.26l.06,3.82c5.21.85,24.5,10.45,27.87,5.4,1.26-1.88-.4-6.18,2.52-7.92,2.95,2.65,6.21,7.59,10.47,7.85,3.08.18,5.55-2.47,8.99-2.72,7.46-.55,15.31,4.83,22.66,1.4l-3.16-9.19c2.07-5.16,7.61-5.36,11.59-8.73,3.47-.03,4.53,5.19,6.68,5.93,5.66,1.94,11.88-2.77,15.54,6.87,6.74-2.18,18.7-4.41,25.46-2.75.44.11,3.38,4.73,5.67,6.37,3.81,2.73,17.92,9.98,22.16,10.47,8.52.99,14.02-6.05,27.28-2.79,11.72,2.87,16.85,18.44,24.32,18.8,5.48.27,3.25-3.73,5.28-5.37,7.33-5.9,18.52.85,25.9,1.35,3.17.22,6.88-1.51,8.64-1.05,2.24.58,4.95,5.86,9.97,3.75-.29-16.18,7.39-8.92,16.34-8.02,6.73.68,13.69-.5,20.26,1.8,4,1.4,5.78,4.35,9.68,5.95,10.7,4.38,23.19,1.04,28.51,14.73l14.65-.03v6.56c10.55-1.16,11.61,4.34,16.2,11.81,1.27-4.15,7.79-5.6,11.68-5.36,4.41.27,5.5,4.22,9.32,5.09,4.14.95,9.07-.08,13.34.27,1.47,12.06-4.19,11.51-12.96,15.13l5.15,9.12c-6.9,17.79-14.84-1.58-16.44-1.95-2.69-.62-5.85.56-9.16-.84-2.08-.88-1.59-3.81-4.79-4.41-3.71-.69-8.32.78-12.13-.2-2.96-3.13-2.52-18.43-9.31-14.9-6.74,3.51,1.87,11,.47,14.78-1.51,3.89-12.76,3.85-10.72,8.78,1.46,3.53,18.65,6.81,19.35,18.6.68,11.57-11.8,1.48-14.87,1.8-4.17.44-10.96,12.25-19.42,6.62l-8.5,22.28c-7.91.48-7.41-10.78-16.06-10.44-1.69.07-22.99,11.17-24.13,12.38-2.85,3.03-4.14,8.95-4.88,13.01,5.57,5.47,13.58,10.43,13.96,19.12l-5.07,2.19,1.19,14.9-6.45-1.29c2.74,4.9-10.19,30.52-12.54,31.32-10.83,3.69-13.23-17.7-16.12-23.97-5.01-10.88-8.31-13.39-7.7-27.73.47-11.06,3.88-10.73,8.38-17.8,2.87-4.51,5.74-10.54,9.15-14.35,6.51-7.28,16.09-8.28,9.73-20.97-7.9-.98-5.13,11.1-11.01,11.86-7.55.97-7.41-12.25-20.61-10.49-14.46,1.93-8.35,20.23-13.13,27.44-2.28,3.44-14.06,6.47-17.46,3.36-1.84-1.68-.7-4.25-1.55-5.63-.5-.81-6.72-3.12-8.12-2.99-3.9.34-3.36,4.85-5.2,6.63-3.44,3.33-26.3-.74-33.69.02-17.82,1.83-15.36,11.12-22.95,24.01-3.49,5.92-7.56,11.13-12.39,15.98,2.55,8.5,15.13,3.7,12.65,15.11,6.2-.01,3.04-7.75,9.47-7.44,13.36.65,20.09,17.15,18.92,28.95-.35,3.48-2.53,7.1-2.38,10.55.18,4.08,3.8,8.51,3.7,13.08-.15,7.03-15.76,38.6-20.67,44.73-4.22,5.27-7.81,8.82-14.88,8.67-2.65-.06-5.72-1.67-7.58-1.48-.92.09-.99,2.11-1.81,2.64-9.51,6.14-4.75,4.1-5.8,15.53-6.38,1.95-5.48,10.74-12.67,10.78-1.35,1.8,9.57,10.02,11.63,12.48,6.3,7.54,12.85,20.72,8.13,30.49-2.99,6.2-19.4,9.41-19.88-.33-.35-7.11,6.07-10.88-4.51-12.43,2.88-11.21-6.79-14.67-14.81-19.09-.66-2.7,4.73-3.69,5.84-5.87,2.82-5.54-2.47-7.32-7.16-6.05-3.78,1.02-16.48,14.36-19.16,5.11-1.27-4.37,1.64-10.16-2.2-13.47-5.23,1.23-5.22,7.82-7.48,10.12-2.64,2.69-8.77,1.29-8.83,7.53-.06,5.98,6.28,11.39,12.13,9.66,3.6-1.07,11.97-14.44,18.45-1.1,6.56,13.51-9.15,7.32-14.3,15.79-1.81,4.02,3.55,15.02,6.07,18.77,2.18,3.24,9.2,8.53,9.9,10.98.84,2.98-.14,6.62.59,9.9.99,4.44,8.12,24.99,4.66,27.08l-4.93.21c1.79,6.05-5.41,9.54-6.29,12.67-.85,3,.61,7.06-.89,9.6-2.53,4.31-13.42,1.58-10.26,10.52-9.83,1.21-5.75,7.4-8.52,9.84-6.01,5.28-19.15.45-26.01,2.54-6.39,1.95-15.09,14.91-20,15.17-2.19-.96-1.72-13.63-5.19-11.82-3.02,1.74-1.2,5.72-2.24,7.58-.71,1.26-9.56,4.53-11.74,9.85-4.97,12.1,13.97,21.15,19.06,28.57,6.33,9.24,7.28,23.97,4.48,34.54-2.94,11.06-15.25,16.19-21.91,25.06-4.49,1.96-7.88.74-8.39-4.41-.57-5.67,5.08-4.9.63-11.3-5.37-7.72-6.58-.94-14.25-1.98,1.13-8.96-.4-17.13-10.8-16.93-3.12.99-4.28,8.44-3.9,11.46.36,2.82,8.34,23.32,9.9,24.74,1.98,1.81,5.66,1.9,7.97,4.4,1.14,1.23,8.94,11.06,9.8,12.39,6.49,10.13,2.55,22.46,2.58,33.48-5.1.41-9.34-.07-14.26-1.32,1.91,2.31,6,5.16,6.2,5.52.83,1.48.1,5.22.84,7.69.62,2.09,4.08,13.22,4.61,13.7.96.87,7.3,2.48,7.78,1.95.58-2.51-1.78-6.76,1.95-6.58,7.84.37,11.96,5.22,11.01,13.14l-7.76-1.3,1.08,20.13c-3.3,3.83-8.76,6.35-13.47,3.56-1.87-1.11-15.53-18.03-17.94-21.19-4.13-5.41-11.25-14.12-13.97-19.97-6.39-13.74-3.19-17.28-17.29-28.42-3.06-2.42-15.51-8.44-16.04-10.08-2.19-6.79,7.75-10.03,13.27-8.1,2.49.87,4.8,8.07,7.95,10.31,3.1,2.21,7.03,2.07,10.46,3.84,8.01,4.13,8.66,12.59,21.33,15.81ZM1373.22,427.5c-4.32-1.3-6.74,2.93-9.97,3.66-2.95.67-9.28-.41-10.59.44-.71.46-.62,3.65-1.75,4.78-1.72,1.71-7.34.51-6.19,3.56,1.62,4.27,7.85,3.1,11.45,3.48l.96,5.11c-8.15,3.42-17.65,8.23-26.47,5.57-1.77-.53-3.35.4-2.84-2.35.81-5.57,10.37-5.99,9.1-12.43l-6.33-1.48-.14-9.04-6.35.14c-1.82,7.82-1.98,18.06-9.86,22.15l-3.21-3.9c.31,4.03-3.8,7.57-4.62,10.42-.9,3.12-.1,5.89-.65,8.53-.81,3.81-4.78,7.33-1.91,12.57l20.66-1.46,26.03-6.58c6.11.36,5.77,5.63,8.39,7.26.58.36,11.9,4.23,12.64,4.38,6.34,1.33,21.12,2.17,21.2-6.89.09-11.2-9-9.35-13.72-12.46-3.38-2.22-5.16-6.8-7.78-9.22-6.55-6.03-18.11-4.45-8.98-15.67,1.28-1.57,12.87-8.89,10.93-10.58ZM1463.94,443.23c-2.44-4.62.13-6.92.79-10.4,1.02-5.39-5.29-.24-6.66-.09-4.37.48-11.81-3.96-17.09.39-.92.76-1.45,3.03-2.88,4.25-3.95,3.4-12.63,8.66-13.01,14.46-.32,4.91,8.98,21.38,12.38,25.41,3.9,4.62,8.82,5.21,12.03,10.16,1.3,4.89-3.72,3.51-4.73,4.66-.79.9-.53,5.77-1.8,8.07-1.57,2.86-5.99,1.06-2.07,7.77,1.86,3.19,15.08,13.56,18.49,13.58l12.41-6.94-7.86-35.87c5.39-1.53,4.42,5.37,9.05,5.24,1.85-4.61,1.23-8.36-.13-12.97l-6.91-.23-2.67,6.61-2.51-10.56-11.16-1.83-3.71-11.77,6.38-2.1c-2.08-7.62,5.58-8.68,11.64-7.86ZM1530.03,431.44l-10.36-.02-.16,9.02-6.39,2.3.69,13.7,1.29.88c5.81-3.73,8.35,4.38,13.04,4.27,7.42-1.59,3-7.69,3.56-10.94.21-1.21,2.1-2.2,2.28-4.1.08-.84-2.56-.31-3.39-3.25-.62-2.2.18-11.05-.56-11.85Z"/>
      <path class="cls-1" d="M639.51,237.41l-7.7.37-1.86,7.3c-5.98,6.36-14.28,1.21-20.06-2.61-1.74,7.74,10.18,4.72,11.53,8.71.58,5.31-2.08,13.88-7.59,15.64-3.33,1.06-8.05,0-10.87,1.79-1.54.98-2.74,6.31-4.73,8.65-4.38,5.13-15.77,10.42-21.46,16.32s-12.39,14.96-10.79,23.52l8.82,3.53,3.55,15.1c3.89,2.55,7.5-.24,11.4-.17,10.15.2,9.86,8.09,15.59,11.89,3.38,2.24,7.28,1.79,9.66,3.34,1.79,1.17,2.98,5.58,5.19,6.43,2.57.99,9.63-2.72,13.03-1.91,2.66,9.17-6.77,29.74.34,36.38,6.17,5.76,9.16-7.02,14.57.34,5.17.02,1.93-31.67,7.16-36.03,1.61-1.34,5.12-1.22,7.18-3.23,6.02-5.91-3.67-27.23-3.33-35.51l7.82-2.24c3.38-8.65-1.54-16.86.26-25.69.3-1.46,5.24-11.17,6.05-11.91,4.77-4.35,10.2,3.68,13.76,4.37,4.22.82,9.85-.94,13.96.3,3.32,1,8.55,9.53,11.89,11.58s12.05,1.72,9.15,7.83c-1.17,2.47-3.92,1.97-4.63,7.15-1.74,12.78,3.62,19.49,16.58,14.17,8.33-3.42,15.64-35.69,18.53-4.31l7.55,1.55.16,10.32h5.21c1.78,6.22-4.13,7.83-3.91,13.11l5.13.07,1.36,11.75,9.05-2.62.02,5.25c2.7-.33,4.46-2.54,6.44.65l-6.44,11.16c.62.62,9.64-6,13.62-1.32,2.18,2.57,2.81,19.67,1.75,22.8-1.77,5.22-11.58,1.51-15.43,2.7s-4.55,5.08-7.26,7.13c-3.47,2.62-17.05,4.21-21.79,4.17-4.12-.03-16.2-3.18-19.24-2.47-2.07.49-3.96,4.34-6.18,5.61-6.24,3.57-12.92,3.58-16.75,11.91,9.99.87,13.38-13.03,24.99-9.57,9.94,2.96,1.59,10.48,1.05,12.45-2.58,9.48,22.98,12.89,24.28,15.04,5.4,8.95-12.53,11.29-16.53,13.68-6.15,3.67-18.01,23.08-21.62,4.45,2.08-7.31,18.82-9,18.93-18.32-11.41-2.99-18.33,16.18-24.65,19.01-2.05.91-4.11.22-5.47.69-.64.22-8.83,6.31-10.08,7.19s-3.29-.79-4.51.55c-3.98,4.35-3.91,10.24,1.88,12.69l-1.21,3.83c-4.41,3.52-10.44.67-15.26,2.92-4.07,1.9-4.76,8.77-5.69,9.33-1.76,1.07-5.3-1.03-8.24,1.5-4.33,3.74-2.62,14.65-3.42,15.58-.45.53-10.11,2.91-9.9,7.42.05,1.19,5.01,3.9,3.53,13.03-1.01,6.24-4.81,5.6-6.37,8.31-.71,1.24-1.01,5.29-1.34,5.54-1,.75-4.78-1.62-6.85-1.12-1.62.4-3.71,3.62-5.61,4.9-1.61,1.08-4.6,1.01-5.36,1.77-.93.93-.61,4.73-2.19,6.31-2.76,2.76-8.88-.78-11.5,8.03-1.29,4.32-1.55,16.98-.96,21.53.14,1.05,2.16,8.01,2.83,11.59,1.78,9.49,7.35,19.47,2.5,29.05-10.24-1.01-18.28-15.6-19.38-25.11-.53-4.58,1.7-10.08,1.01-12.7-.5-1.9-8.34-8.84-10.25-9.48-2.37-.79-5.24,1.02-8.25.66-3.28-.39-5.02-3.35-7.95-3.89-6.18-1.15-10.81,1.48-16.07,3.99l2.53,9.07c-5.55,1.35-11.3.38-16.68-1.48l-.18-9.01-4,.77-1.19,7.11c-5.56,2.13-8.84-6.26-12.06-5.06-4.73,1.75-8.93,12.61-13.8,16.26-3.34,2.51-7.54,2.05-8.56,5.74,1.36,8.09-5.56,19.37-5.84,25.72-.22,4.88,2.91,9.01,3.67,13.41,1.48,8.58-.76,19.07,8.18,24.52,7.14,4.35,16.48,3.64,24.1.99,10.85-3.78,6.77-13.85,13.72-19.06,4.31-3.23,16.14-5.34,20.09-1.86.61.54,2.98,7.46,2.81,8.14-.39,1.62-3.71,1.55-3.9,2.89-.23,1.59,1.51,3.86.92,7.07-.77,4.21-4.87,6.38-5.72,10.07-1.35,5.89.61,11.69,1.03,17.45,5.75-1.5,9.8-3.86,16.17-2.6,3.54.7,7.53,6.67,12.3,6.57-1.36,8.12-8.62,28.39-3.93,34.86.82,1.13,3.25,1.39,4.05,2.74,1.57,2.65.07,6.2,3.39,8.04,8.48,4.68,10.64-2.59,14.27-3.47,6.74-1.62,17.24,9.12,22.41,12.9l.57-9.28,5.84-1.3c-1.47-15.65,8.76-11.96,15.56-16.4,2.29-1.49,3.13-6.88,7.28-7.22,2.78-.23,4.3,2.43,6.5,2.72,6.01.81,5.2-3.63,12.89,2.64,4.89,3.98,6.17,3.83,10.2,6.67,2.19,1.55,2.06,4.48,5.31,5.12,2.34.46,11.87.42,14.25-.04,3.13-.61,5.11-4.31,10.51-5.1,4.92-.72,10.07-.22,14.78,1.2.94,2.62-2.38,4.82-2.04,6.62.1.52,4.89,8.77,5.26,9.14,2.3,2.29,5.66.6,6.97,1.46,1.01.66.7,4.99,1.81,6.07,1.98,1.91,6.62-.19,4.84,8.2l7.61.17,1.48,7.7c4.68,1.82,5.79-4.88,7.38-5.28s7.17-.31,8.66.22c1.65.58,1.67,3.02,2.39,3.44,1.4.83,3.95-.24,4.74.49.55.5-.51,2.97.96,3.8s5.39.35,6.63,1.6c1.99,2,6.45,11.63,8.29,14.56,3.04,4.86,7.42,6.25,7.72,13.28.4,9.26-7.57,13.77-10.49,21.68,6.05-6.44,17.3-16.41,20.74-2.61,8.36-3.45,18.82-4.74,25.96,1.9,3.47,3.23,4.5,9.73,10.63,8.39,1.81-.39,3.59-2.47,5.55-2.42,2.43.05,3.42,3.05,5.41,3.67,3.91,1.22,13.78-1.33,16.05,2.44.89,1.48.83,5.13,1.33,5.54.81.66,4.22-.44,6.33.79,1.42.83,3.14,5.6,5.79,7.27,2.93,1.84,6.66,1.22,9.11,3.97l.64,13.06h5.21s-.15,9.1-.15,9.1l-3.75.08c3.08,6.84-.26,5.59-1.22,7.56-.76,1.56-.54,4.1-1.65,5.29-1.03,1.1-3.98.85-4.65,1.84-.72,1.06.04,3.68-1.46,5.77-2.32,3.24-5.37,4.84-7.54,10.7-.76,2.04.21,5.37-.88,6.98s-4.59.87-5.96,1.84c-4.77,3.37,3.06,28.25-1.19,35.22-.72,1.18-3.21,1.3-3.75,3.04-1.13,3.62-.36,10.25-1.87,15.21-1.27,4.18-4.76,7.38-5.59,10.21-.87,3,1.32,8.51-1.15,11.85-1.95,2.64-7.33.47-10.24,1.47-1.67.57-1.48,3.11-3.08,3.72-4.12,1.56-10.63.88-15.88,3.29-5.68,2.61-6.55,7.59-9.85,9.73-1.64,1.07-4.89,1.06-5.45,1.69-3.05,3.44.17,22.04-2.83,27.64-1.24,2.32-6.99,2.83-7.59,3.8-1.32,2.13,1.44,6.98.61,10.39-.66,2.7-3.09,2.58-3.92,3.92-3.45,5.57-.08,7.65-10.6,9.02-1.56,2.23.38,5.78.08,8.18-.43,3.35-11.28,15.63-14.25,16.82-9.25,3.7-11.58-3.1-20.06-3.89l.75,4.05,5.58,1.34.32,10.17,4.9,1.61c.55,5.36-1.91,10.96-6.72,13.32-1.86.91-5.31.63-5.94,1.26-.51.51.06,2.53-.46,3.29-1.44,2.09-17.99,3-21.72,4.37-1.51,1.78,7.47,22.54-7.05,20.94-5.27-.58-7.41-8.07-11.13-3.24.4,4.74,4.44,4.94,6.76,8.88,5.56,9.43.16,10.69-3.86,17.65-2.87,4.96-1.37,4.41-6.03,9.7-1.8,2.04,1.02,3.99-6,4.61l-.67,7.05c2.48,4.07,13.03.45,11.14,12.4-.68,4.3-4.95,3.53-5.95,7.16-1.3,4.71-.18,9.74-.61,14.5-16.25-1.09-4.63,19.99-7.71,30.23,4.69-.66,8.82-2.42,13.36.26,2.24,1.33,2.56,3.73,4.13,4.99,3.06,2.45,8.57,4.53,9.7,8.56,1.26,4.48-7.22.04-9.06,1.19l-3.32,6.06-17.51-8.49.09-9.94-3.86,8.49c-2.12,3.33-5.51-5.53-7.13-7.19-2.8-2.86-14.22-10.06-15.89-12.12-1.39-1.71-1.24-7.96-2.84-10.57-.96-1.57-5.16-3.24-7.13-6.24-5.17-7.83-4.35-17.77.52-25.4-11.16-6.19-1.52-15.17-.28-24.08.84-6.04.18-11.29-1.18-17.14l-6.24-.24c.86-6.73,1.91-13.48,1.28-20.33-.75-8.06-5.78-18.25-5.26-26.23.36-5.51,4.87-9.36,6.64-14.38,2-5.66,3.61-18.01,2.54-23.75-.61-3.26-3.59-2.71-3.95-4.15-2.51-10.06,3.79-19.55,3.97-28.67.09-4.42-4.3-11.99,1.9-8.87l1.92-1.63c-.76-4.48-2.17-9.89-1.3-14.42.63-3.26,3.58-2.7,3.94-4.15.76-3.04-.62-8.05.06-11.49l-3.84-.8c-2.19-5.25,3.06-7.59,3.74-11.09,3.2-16.5-3.83-41.54-19.54-49.73-3.01-1.57-6.3-1.18-9.61-3.39-2.9-1.93-4.15-5.65-6.47-7.88-3.11-3.01-8.49-3.77-9.51-8.87-1.48-7.41-3.63-13.81-7.26-21.4-4.99-10.43-11.38-20.15-15.93-31.11-1.16-2.79-1.5-6.47-1.65-9.49l-6.95,1.43c-3.57-.67-4.27-25.46,6.96-22.43.24-5.45-7.71-8.73-7.69-13.76.02-3.67,4.82-8.75,6.08-12.14.76-2.06-.28-5.08.57-6.63.3-.55,8.32-4.77,9.94-7.59,1.4-2.43,1.26-6.79,1.53-7.04.55-.51,4.35.5,6.44-.7,6.85-3.93-.03-43.91-14.28-42.66,4.59,18-8.68,5.36-13.87,4.19-8.16-1.83-10.07,3.22-11.96-8.89-4.35-.9-9.81-.48-13.09-4.16-3.94-4.43-.87-6.86-1.88-9.48-.43-1.13-2.75-2.54-3.55-4.36-1.47-3.33-3.9-11.48-6.27-13.32-.58-.45-12.46-6.29-13.17-6.47-5.56-1.37-8.05,2.44-14.51-3.56-2.21-2.05-4.47-7.63-6.52-9.14-.48-.35-10.4-4.46-10.99-4.58-2.69-.55-4.61,3.28-8.45,3.4-18.95.6-44.92-25.14-61.07-34.17l-.41-1.73c4.89-6.29-1.28-13.11-.69-20.68l-5.87-1.27c1.89-10.54-10.51-6.08-7.99-18.15l-6.19-1.62c2.36-9.19-12.21-18.81-14.12-25.73-.96-3.47.66-7.62-.91-10.89-.85-1.78-10.41-7.72-11.7-11.79-2.72-.56-2.11,1.32-1.93,3.26,1.41,15.35,13.08,22.01,18.88,33.39,1.52,2.97,1.63,6.23,2.91,8.87,3.92,8.1,9.86,15.83,9.33,25.33-6.76,2.95-16.94-7.73-18.74-13.18-1.51-4.58.36-8.82-2.67-13.04s-18.15-9.23-17.36-13.62c13.25-12.15-3.27-16.46-7.23-25.78-3.69-8.69.4-14.19-.5-22.77-8.86-.99-12.31-7.22-20.36-9.99l.22-9.32-7.24-1.23c-1.89-4.21,3.13-10.79,2.44-13.51s-7.32-6.72-8.94-9.43c-2.56-4.27-3.31-13.46-2.48-18.34.57-3.39,3.46-5.55,3.63-6.85.23-1.68-2.51-2.92-2.23-5.99.46-5.03,5.07-11.51,5.99-15.09.85-3.29-.32-6.87.56-9.94,1.26-4.4,3.21-3.64,4.99-13.31s.64-4.52-.08-12c-.26-2.7,1.43-5.03,1.36-6.34-.03-.55-3.88-2.33-5.25-4.02-4.38-5.38-6.52-12.86,1.32-15.77-8.11-6.45-11.18-15.49-7.78-25.59h-7.78c2.72-6.91-4.34-7.16-4.9-9.99-.52-2.62,2.15-9.65,3.61-12.32l-8.9-2.81c.91-8.69-1.72-5.08-4.78-7.59s-1.56-8.17-1.88-11.93c-5.11,2.71-8.58.85-11.01-3.93l-2.64,3.93c-4.23-.68-6.59-3.66-7.14-7.85l-5.8.02c.4-9.91-9.27-1.95-9.13-12.01-7.3-3.13-14.36,2.52-21.83-1l-.79-6.68c-5.23.43-5.81-.62-7.12-5.32-9.58-.3-5.69,7.67-7.3,10.35-.17.28-4.08,1.45-5.65,2.8-7.15,6.18-14.32,19.85-23.96,8.53-.62-2.9,3.65-2.94,3.87-3.29.93-1.48-3.33-4.25-1.66-6.11l15.92-10.27c.56-2.27-.88-2.15-2.55-2.63-11.78-3.42-12.45,10.19-18.83,16.42-2.15,2.1-8.05,4.39-9.14,6.57-1.03,2.06,1.59,5.53.63,8.36-.77,2.26-4.03,1.2-3.79,3.43,9.5-1.48,9.1,4.63,5.43,11.42-6.17,11.42-21.53-.14-6.74-9.45.2-.99-1.24-.84-1.91-.63-7.4,2.28-25.36,19.96-34.47,25.46-10.29,6.22-23.36,12.59-35.62,11.33-5.23-.53-10.09-3.89-4.82-8.02,4.17-3.28,21.58-8.7,28.05-11.92,10.29-5.13,28.52-12.19,25.45-26.05-2.88-.97-5.1,2.65-7.12,2.62-1.88-.03-3.22-2.49-5.17-2.59-2.51-.13-5.5,3.06-8.02,3.68l-3.09-1.65c-3.9-5.37,2.44-10.98,2.67-16.51-8.08,8.56-24.73-6.1-10.36-9.84-17-12.24.88-11.64,2.39-14,1.95-3.04-1.55-9.71,7.97-12.37,4.34-1.21,5.74,1.48,9.07,3.4l2.14-6.47,9.54,1.22,3.88-13.12c-4.35.38-5.49,5.25-9.99,6.28-8.94,2.05-22.29.5-19.07-11.53l-5.85-2.73c-.68-10.77,8.15-6.24,13.39-7.68,1.27-.35.18-6.04,6.75-6.63,6.63-.6,5.24,4.32,7.83,5.1,3.31,1,16.35-4.1,21.19-2.51-5.5-6.2-35.61-7.37-31.88-21,2.6-9.51,17.25-2.7,24.39-6.58,3.38-1.84,4.21-10.8,6.41-14.17l15.82-.39,4.21-7.54c4.28-1.53,9.23,1.41,12.54.91,3.93-.6,7.39-7.65,13.87-5.02l.56,6.65c7.42,4.74,9.94-2.43,15.49-5.27l6.85,10.5c6.29.97,15.62-4.65,21.15-2.03,1.95.93,2.63,4.16,5.91,4.61,5.3.73,12.82-4.17,20.65-2.62,3.96.78,4.89,5.12,8.1,6.22,4.25,1.45,11.04,1.65,16.18,3.3,8.33,2.69,15.87,7.7,24.33,10.13.04-2.87-.27-6.43,1.68-8.82.63-.78,14.27-10.84,16.04-11.95,5.31-3.33,12.82-4.38,11.52,3.77l-8.48,4.54c9.63,5.08,13.89-10.01,16.82-11.84,7.17-4.47,6.33,7.67,10.09,9.84,6.76,3.9,6.71-4.19,10.04-3.66,3.61.57,1.95,9.08,6.86,5.99.48-.3.58-2.82,2.35-3.45,7.36-2.64,18.61,7.43,26.07,8.7,9.65,1.64,22.2-2.97,28.49,7.51l-3.52,7.22c5.89.54,8.79-6.15,14.83-5.27s6.71,11.41,15.6,11.89c4.01.22.76-3.36,1.04-5.78.41-3.48,5.85-10.71,9.55-11.06,4.89-.46,6.74,5.81,9.18,7.64,4.72,3.52,23.57,4.6,29.18,2.27,3.49-1.45,3.49-5.2,6.21-6.83,11.34-6.79,12.68,6.07,13.53,5.83,8.15-4.6,17.11-8.13,9.59-18.86-2.64-3.77-10.09-3.54-8.87-9.93,10.47-2.04,10.33-19.44,24.03-13.28,10.63,4.79,2.2,14.48,4.65,21.54.84,2.42,4.54,2.6,5.62,4.8.88,1.78.75,11.47,4.35,5.73,1-1.59,1.67-5.07,3.54-5.64,9.15-2.82,3.42,22.23,7.66,22.2,3.76-2.15,2.83-6.73,4.67-9.68,1.65-2.66,6.38-3.7,7.97-7.68,2.12-5.33-1.18-10.3,6.92-11.42,9.09-1.26,15.18,3.73,17.36,12.45-.06,3.86-5.65,4.33-6.35,6.72-.91,3.07,5.45,8.58,1.28,15.64-2.65,4.49-21.56,12.41-20.99,2.07ZM370.1,427.49c.75-7.54-.83-14.49-7.75-18.37-.83,3,3.47,5.56,3.7,7.45.21,1.76-2.47,2.82-1.84,4.35.41,1.01,4.54,5.6,5.9,6.57Z"/>
      <path class="cls-1" d="M973.88,23.14l-19.93,5.41c-.18,4.12,5.78,2.59,8.51,2.03,14.28-2.92,17.86-8.95,35.63-7.33,4.28.39,18.52,4.39,11.69,9.33-6.04,1.83-56.31,7.02-56.43,11.07,10.17,6.47,21.71-6.98,32.45-5.33,8.63,1.33,3.42,6.99,4.48,12.56,7.23-.41,13.43-11.37,20.52-9.05,8.71,2.85-11.1,16.71-8.21,19.52,7.96.4,11.56-7.45,17.23-10.75,7.43-4.32,27.77-8.18,36.18-7.31,3.46.36,11.85,2.7,10.8,7.69-1.89,9-36.28,15.49-44.78,16.95-3.93,3.22,12.03,2.8,10.35,7.17-6.26,8.97-20.82,8.94-20.82,22.17,4.31,4.13,9.54.19,14.89.89,8.26,1.08,5.8,7.84,5.89,14.33-7.24-.39-11.12,3.76-10.44,11.23.45,4.89,11.13,1.85,11.4,8.03.31,7.19-8.9,17.85-16.46,13.62l2.59,5.86c-4.57,4.01-11.51.15-11.68,8.55-2.42,1.77-10.39-7.54-13.67-2.7-5.62,8.29,6.64,7.74,10.17,9.54,6.67,3.39,11.78,21.32.3,20.81-8.67-.38-13.71-11.18-18.15-11.38s-9.76,5.18-8.45,9.97c6.78,2.76,23.57-2.1,25.34,6.46.99,4.77-25.2,25.67-30.48,27.05-10.09,2.63-15.32-3.36-22.73-3.36-10.42,0-8.33,13.06-12.01,19.37-5.32,9.15-33.2,6.28-42.77,11.15-2.34,5.29.68,9.78-.85,15.6-.44,1.68-7.66,8.73-9.46,12.68-3.94,8.65-3.88,25.42-13.64,29.49-12.74,5.31-11.48-7.67-14.13-9.29-3.85-2.36-9.82,2.74-16.44-7.64-3.94-6.18-18.73-49.04-19.55-56.33-.52-4.6.38-12.3,3.85-15.57,6.41-6.06,19.82-2.44,12.98-19.82-14.11.21-21.84-10.44-2.67-9.77l-3.27-9.19c-4.05,1.97-5.66,5.24-10.99,3.95-.17-17.34-5.84-57.98-28.05-58.98-6.92-.31-15.98,3.52-21.96,3.75-8.44.31-26.19-5.81-27.75-15.61,5.54-2.86,13.63.03,18.58-1.54,5.17-1.64-.71-7.51-4.96-7.79-5.39-.35-18.42,7.46-22.09,1.45-5.42-8.86,12.72-9.31,16.6-11.79,3.08-1.98,6.47-7.54,11.44-9.75,4.89-2.17,10.34-1.62,15.24-3.6l.35-15.38,19.25-3.47c4.9-3.89,8.02-13.94,14.24-15.87,2.77-.86,4.84.51,6.67.11,2.05-.45,4.06-3.27,6.27-3.99,7.56-2.47,12.94,4.97,19.48,7.3l-1.28-7.87,11.52,1.45,1.34,9.48c2.61,2.93,5.96,1.94,9.15.82-4.74-17.48,5.5-12.2,17.32-11.55l3.34,5.55,3.98.8,1.31-18.38c7.45-2.82,14.25,7.19,20.04,6.61,4.25-.43,6.87-7.39,9.71-9.94,8.24-7.43,37.3-12.26,47.65-8.76,4.75,1.61,6.65,4.03,5.37,9.31Z"/>
      <path class="cls-1" d="M2107.81,965.79c1.18,1.87.49,10,2.21,12.85,1.41,2.34,6.57,1.92,9.06,5.27,2.59,3.49,1.41,7.71,2.93,11.47s8.12,8.6,9.13,13.08c1.4,6.23-3.39,29.76-4.14,38.27-.28,3.16,1.06,6.4.47,9.93-1.1,6.51-12.2,11.55-15.55,17.09-2.16,3.58-1.83,8.14-5.13,11.87-2.3,2.6-7.31,3.98-8.95,6.68-4.36,7.17,1.91,12.23-10.01,18.73-19.61,10.7-33.53,12.7-53.91,2.41-10.98-5.54-11.45-7.6-7.68-19.71l-5.03-7.47-2.45.15-.92,2.54-6.97-1.41,7.76-15.73c-5.89,7.17-8.71,15.31-19.42,15.74.16-8-2.44-19.4-10.77-22.68-3.29-1.29-5.56,1.01-7.87.28-1.7-.54-1.6-3.5-3.01-3.87-11.15-2.92-13.39,4.91-19.46,6.31-9.1,2.1-16.35-3.2-24.37,5.5-4.72,5.11-2.61,7.88-10.93,9.93-9.56,2.36-18.15.71-27.71-.59l-6.87,8.82c-10.86-2.01-25.87-10.54-15.9-22.61,2.73-3.3,7.05-.93,6.47-9.31-.35-5-4.17-5.18-5.04-8.12-1.16-3.92.35-9.37-.55-13.88-.81-4.05-12.96-26.24-5.5-28.5,3.36-1.02,6.33,4.69,7.07,3.93.17-3.79-4.14-5.13-5.71-7.98-3.51-6.34-2.24-15.27-.62-22.06,14.71,3.57,14.84-7.74,24.41-12.69,7.02-3.63,15.5-3.24,22.82-5.76,12.89-4.45,19.57-13.54,17.44-27.62,4.69-1.36,4.61,3.69,7.76,5.24-2.1-10.18,8.61-10.1,12.98-16.39,2.01-2.9,2.58-8.14,3.37-8.69,1.26-.88,9.55-2.73,11.24-2.28,3.4.91,6.82,8.2,7.49,11.59,10.33-.72,6.53-6.02,8.56-12.89,2.94-9.92,10.98-6.6,18.58-8.1-.45-4.31-12.42-8.98-4.88-12.25,7.23-3.14,14.77,6.69,22.69,8.02,4.8.81,9.67-.06,14.47.43,3.87,9.63-4.14,9.13-6.42,12.62-.8,1.23-4.42,11.45-3.8,12.14,4.82-.36,6.39,4.19,9.87,6.42,2.21,1.42,5.19,1.58,7.41,3,5.06,3.23,5.57,8.66,13.16,7.82,2.51-.28,8.08-11.25,8.39-14.04.41-3.69-1.29-6.77-1.33-10.32-.14-12.6.94-18.79,8.05-29.34,4.7-1.36,8.58,2.39,8.97,6.96.69,8.01-6.46,8.29.62,18.95,4.02,6.05,8.44,7.58,11.3,16.12,3,8.98.61,21.36,3.18,26.96,2.2,4.79,11.8,5.16,13.04,7.13Z"/>
      <path class="cls-1" d="M673.39,170.28c2.65-1.04,2.53-5.62,4.58-7.81,4.09-4.38,20.99-7.1,26.46-3.28,4.12,2.87,4.19,11.41,6.9,14.67,6.13,7.38,27.71,7.64,34.63,18.07,7.49,11.29-3.93,12.34-3.91,17.05,2.26,15.01,27.22,12.15,31.75,20.37,3.63,6.58-2.18,8.57-3.79,11.9-1.87,3.89-2.3,11.29-7.06,12.39-8.62,1.99-13.75-20.1-21-18.46-5.34,1.2-6.21,9.45-3.59,13.67,18.07-3.56,15.99,16.86,11.53,28.48-6.25,4.31-14.68-10.92-16.9-8.6.03,4.43,11.85,14.09,6.54,17.77-1.93,1.34-5.64.78-7.8-.12-2.04-.85-14.94-10.36-17.51-12.44-3.16-2.55-10.72-12.13-13.28-12.88-5.3-1.55-10.14,3.29-15.26,3.79-14.28,1.37-16.31-13.89-5.08-18.44,3.57-1.45,9.91-.66,13.83-1.63,10.3-2.56,19.86-14.86,15.53-25.59-4.75-11.75-14.59-3.44-18.33-5.71-.6-8.01,2.19-12.16-5.97-18.25s-8.81,6.44-16.82,5.02c-5.81-1.03-7.75-6.74-11.94-7.4s-29.84,11.06-24.86-3.38c.72-2.1,4.1-1.83,3.74-2.76-2.13-2.88-7.89-1.67-9.7-4.61-3-4.89-.93-17.01,1.41-22.16,4.25-9.35,23.78-18.75,20.99-5.04-.75,3.68-9.6,13.72-.39,12.85,4.64-.44,2.65-5.95,3.85-9.3,4.52-12.53,16.66-15.99,26.44-6.95,2.01,6.09-6.26,12.31-5.01,18.8Z"/>
      <path class="cls-1" d="M801.37,41.41c-2.83,6.53-28.03,4.91-34.67,8.16,14.75,10.97-11.3,29.72-21.38,28.95-5.49-.42-8.89-5.39-15.63-1.47-4.01,2.33-5.28,8.46-7.79,11.79-6.33,8.42-15.12,11.77-25.19,13.22l7.79,8.45c-5.52,16.57-27.7,15.95-42.06,14.98-10.15-.69-27.87-3.68-24.11-17.61,3.78-2.59,7.57,2.87,10.39,1.45,1.79-.9,4.98-5.47,7.2-7.25,2.53-2.04,13.44-9.17,14.3-10.54,1.6-2.53-8.9-13.38-3.27-19.65l19.39,6.51-5.17-2.64c-.12-13.77,27.08-2.4,23.97-17.02-4.18,4.27-9.88,3.2-14.68,4.82-11.78,3.97-10.86,8.3-25.14,2.67-7.43-2.93-16.64-11.69-14.02-20.02,2.69-1.79,8.82.33,12.15-.82,3.72-1.28,3.67-10.99,15.5-7.38,3.79,1.15,4.27,7.31,10.32,6.09,6.65-1.34,7.56-9.53,10.32-10.75,6.49-2.86,13.13,1.39,19.62,1.86l2.15-5.35c6.37-1.57,6.72,8.49,12.24,7.94,4.08-.39,4.9-6.3,7.74-8.04,6.74-4.12,27.95.93,36.52,1.28,4.71.19,9.15-2.29,15.14-.9,3.62.84,9.92,7.71,8.38,11.25Z"/>
      <path class="cls-1" d="M1921.25,763.62c7.5,15.52-14.64,12.48-9.93,27.79,1.08,3.51,9.57,4.75,7.61,13.14-.41,1.77-6.89,2.57-7.62,3.74-.63,1.03-.29,4.82-1.23,7.28-1.49,3.93-5.24,6.21-6.12,8.25-1.83,4.23-2.74,18.41-9.1,19.67-9.49,1.88-7.43-4.28-12.94-8.91-2.94-.45-3.46,7.44-12.71,4.67-1.77-.53-10.97-7.72-11.3-9.54-1.22-6.65,3.18-6.59-5.92-8.44,1.08-9.17-6.87-8.71-5.7-17.69,1.27-9.72,10.94-4.87,17.94-6.2l2.9-10.19c10.49,2.23,7.59-1.7,12.96-7.22,2.28-2.34,9.24-5.53,9.91-6.37.99-1.24.85-4.73,1.87-6.64,1.48-2.78,3.69-2.75,4.54-3.92,2.68-3.67-1.14-7.98,6.9-5.56,5.84,1.76,10.58,7.56,17.93,6.13Z"/>
      <path class="cls-1" d="M480.27,165.04c3.48-1.07,16.68-7.09,18.63-6.49l4.68,9.11c1.83-7.58,3.45-10.96,9.8-3.99,2.64,2.9,3.2,7.62,7.05,9.25,1.65-4.46-1.76-10.09,1.19-13.91,2.4-3.1,9.3-1.58,13.08-1.84-.99-1.09-1.79-1.18-2.67-2.14l2.24-5.79c3.4-.08,12.59-.91,13.31,3.49.92,5.6-10.08,4.24-12.88,4.44,8.22,9.02.84,6.75.26,12.66-.19,1.97,5.91,13.09,7.59,14.17,2.96,1.89,9.48.91,10.32,6.62.66,3.88-6.8,1.27-9.09,1.99-2.96,2.86,13.17,14.54-5.99,16.9-15.79,1.94-35.28-.54-51.61,1.38-4.95-.47-8.83-5.16-12.51-7.02-3.13-1.58-20.19-4.71-10.79-11.18,3.17-2.18,12.57-2.13,16.73-2.76,1.76-.26,3.93-.5,1.95-2.57-8.02-3.55-15.25,1.77-23.18-1.47l1-9.6,14.35-.82c-1-6.36,3.61-6.52,6.54-10.44-6.49,2-14.83,3.3-20.74,5.9-14.64,6.43-23.67,25.66-39.71,6.76-7.98-9.4,1.29-10.2,5.83-16.13s4.97-16.1,11.16-20.23c4.51-3.01,4.13,3.01,8.44,2.7,4.51-11.52,7.55-2.42,11.28-.23,3.05,1.79,7.47,1.08,10.78,2.21,8.78,2.99,21.28,7.87,12.96,19.03Z"/>
      <path class="cls-1" d="M1460.24,932.88c-.4,3.07.09,6.11-.73,9.18-.66,2.48-3.08,2.31-3.31,3.38-.8,3.74.83,8.68-.29,12.59-1.03,3.59-7.25,5.89-7.55,7.11-.98,4.06,2.16,9.29,1.31,14.07-.77,4.34-6.25,15.19-6.43,16.08-.49,2.46.76,6.1-.3,8.02-.94,1.7-17.69,9.93-20.85,9.52-2.36-4.85-4.2-3.11-8.59-4.08l2.5-16.97-6.29-.19c-6.06-12.11,9.67-15.34,11.54-26.77.03-2.86-3.44-2.58-4.39-4.84-1.11-2.64-1.54-14.73-.65-17.26.56-1.61,2.83-1.67,3.32-2.48.77-1.26.18-3.41,1.04-4.82.96-1.58,5.65-3.39,6.72-6.65l5.49.15.72,3.81c3.94-3.27,6.3-6.51,7.32-11.65l5-.15c-2.37-5.73,3.67-7.74,3.92-8.79.6-2.46-.71-6.06.15-8.75,12.79-8.06,8.5,6.1,9.54,8.44.8,1.8,4.82,2.37,5.62,4.72,1.21,3.57,1.83,17.8-4.8,16.35Z"/>
      <path class="cls-1" d="M1108.84,317.26l.12,7.76c1.37,2.44,17.04-4.77,10.06,10.44l-4.99.83,9.75,5.89-.68,9.2,3.75.08c-2.02,6.69,4.32,7.56,5.13,9.96.98,2.89-.44,6.5.37,9.47l9.05,2.26c2.18,7.32,2.98,13.96-6.63,12.36-1.06,4.32,6.77,2.86,2.62,7.24-5.57-1-10.41,5.05-13.95,5.68-3.23.57-6.29-1.55-9.95-1.11-5.3.64-10.71,8.69-17.6,6.55-2.24-2.16,7.75-17.55,12.95-15.75l-9.06-3.29c-.58-2.81,3.67-2.54,3.98-4.16.55-2.87-2.59-8.54-1.4-12.23,4.77.49,8.67-.7,11.65-4.59-4.19-7.35-11.28-4.76-16.84-9.22l2.41-3.91c-2.06-3.66-6.84-2.18-7.41-6.78-.08-3.65,7.65-2.74,3.66-9.87-2.52-4.5-7.43-1.83-9.06-2.91-3.32-2.2-1.03-12.87,4.54-11.26,4.88,1.41-1.56,8.89,2.61,7.83,4.97-1.26,4.15-13.59,14.93-10.48Z"/>
      <path class="cls-1" d="M1458.47,188.34c-2.29,2.15-16.36,2.29-19.52,1.36-5.68-1.68-4.97-9.03-6.76-11.53-1.32-1.84-6.15-1.47-6.93-4.85-.16-.67,1.3-12.33,1.69-13.61,1.55-5.12,8.95-4.76,5.91-14.36l5.16,1.3,2.48-12.59c2.42-3.07,7.1-1.01,10.48-2.51,2.47-1.1,3.44-5.22,4.16-5.62,1.7-.96,5.36.19,7.91-.53s4.25-5.2,7-6.03c5.6-1.68,12.87.77,20.13-1.93,7.55-2.8,7.32-9.22,18.4-7.46,3.77.6,9.76,4.3,5.91,8.46-2.62,2.83-27.41,9.42-34.59,13.53-4.43,2.53-26.65,18.65-28.98,21.84-1.85,2.53-4.38,15.19-3.82,18.38,1.27,7.16,15.95,7.37,11.36,16.15Z"/>
      <path class="cls-1" d="M1263.97,94.55c3.42,4.2.81,11.04-4.16,11.45-1.97.16-4.08-1.33-6.32-1.21-3.39.19-7.28,2.15-11.15,1.19l.7-9.16c-3.2-6.76-11.75,1.68-13.07,6.48-1.16,4.2.88,11.62-4.1,13-6.18,1.71-8.27-6.51-11.31-10.39-2.92-3.73-6.97-1.8-5.87-9.67.28-2,3.73-7.46,2.55-8.62-2.6-2.55-5.38,3.59-6.57,4.49-2.42,1.83-10.61,1.89-12.64.53-.68-.45-4.12-15.12-3.92-15.92,1.53-6.06,14.17-10.62,12.78.38,3.4-.22,4.23-3.26,8.34-2.68,3.31.47,3.85,4.33,7.2,3.98-.75-5.52,1.31-9.93,7.09-10.58,13.7-1.55,8.9,9.62,15.78,15.65,5.74,5.04,20.42,5.8,24.7,11.05Z"/>
      <path class="cls-1" d="M2034.01,477.55c1.99,3.22.87,7.42,1.81,10.63,1.22,4.18,9.05,10.8,6.88,14.16-1.04,1.61-4.36,1.69-5.61,2.9-3.04,2.93,8.27,27.64-7.94,27.39,1.01,6.78-5.45,8.84-5.34,1.15l-12.1,4.03-3.43-5.33c-.27,2.73,1.16,10.83-2,11.79-4.39,1.34-4.41-4.23-7.07-5.23-.47,4-2.48,7.65-6.96,6.63-1.11-.25-1.5-3.34-3.45-4.63-3.3-2.17-11.21-1.07-8.41-7.26.84-1.84,13.01-10.47,14.97-11.16,3-1.05,7.74,2.33,9.03,1.37l2.69-12.43c4.96-.15,9.18,2.71,13.96-.3-1.38-6.32,1.93-12.66,2.37-17.69.75-8.56-5.37-18.56,10.59-16.05Z"/>
      <path class="cls-1" d="M1003.89,238.52h1.91c5.62-11.04,10.24-1.43,18.15-1.19,10.58.32,24.42-13.43,25.99,6.38.54,6.77-3.01,17.05-10.49,18.38-2.8.5-6.25-.59-8.81.26-2.21.74-4.86,7.93-8.22,8.83l-3.01-.47c-6.47-11.2-12.92-7.34-23.31-5.95.82-5.51,6.28-9.9,3.87-15.73l-11.64,3.94c-5.8-10.15,9.58-30.99,15.56-14.45Z"/>
      <path class="cls-1" d="M683.42,129.95c2.53,2.41,5.03,13.8.8,15.23-5.87,1.99-8.54-2.4-12.71-3.84-16.02-5.52-27.75,11.18-46.11-3.18-2.48-1.94-12.01-11.48-13.51-13.87-9.01-14.37,17.01-20.76,22.72-12.51,3.81,5.5-3.04,10.05,9,14.5,9.59,3.55,36.06.09,39.81,3.66Z"/>
      <path class="cls-1" d="M1957.61,795.06l2.47,8.23c-.37,1.95-5.64,4.96-7.51,5.46-1.94.52-12.59.5-14.77.21-1.83-.24-7.04-3.87-7.28-3.54l2.59,14.43c.5.54,10.47-9.34,12.79-3.07,2.57,8-7.96,11.46-7.68,14.12.82,5.11,6.32,8.83,7.93,13.13,2.16,5.76,2.25,13.67-5.75,11.13-1.51-.48-1.75-2.84-3.06-3.86-5.57-4.34-6.89-1.31-4.25-11.76-7.44.05.04,22.04-12.21,13.01-3.79-2.79-.95-6.73-2.23-8.89-.49-.83-5.12-.69-6.08-3.68-.6-1.85-.59-8.23-.18-10.26.86-4.33,4.27-3.71,5.74-5.99.38-.59,5.42-12.03,5.59-12.71.98-3.87-1.33-10.35,3.81-11.9,6.96-2.1,16.55,5.23,21.87,1.15,2.38-1.83,2.33-7.24,8.2-5.21Z"/>
      <path class="cls-1" d="M650.9,64.45c6.48,7.04,6.67,15.42,3.33,24.11-2.84,7.38-7.14,9.2-14.74,8.79-9.95-.53-18.92-4.84-15.36-16.29l-7.63-.15c-4.29-10.89.34-10.64,4.32-16.99,2.5-3.99,3.58-9.22,8.13-11.56,3.62-.91,19.2,9.1,21.95,12.09Z"/>
      <path class="cls-1" d="M532.34,122.82c.84.98,11.63,2.16,15.36,6.11,2.37,2.51,6.47,12.77,1.96,13.57-4.43-.5-8.96-4.7-13.1-4.92-5.92-.3-16.11,5.68-22.54,7.17-12.42,2.88-30.92,3.67-23.07-14.83,4.29-3.05,8.59,1.07,12.41.15,5.6-1.36,7.17-9.18,14.51-7.02l.14-7.74,11.54-.81c2.84,1.72,1.94,7.32,2.8,8.32Z"/>
      <path class="cls-1" d="M789.84,397.5l.74,9.09,12.46,3.4c1.96,5.72,1.1,10.48-.06,16.18l3.78.07c1.08,12.8-7.59,18.38-13.52,5.2-4.05-.78,1.76,5.65-2.6,6.56-7.08,1.46-5.02-11.13-7.71-11.62-3.74,1.82-17.11,4.82-18.67.23-.61-1.79,1.97-13.24,3.13-14.81,1.33-1.79,4.98-2.6,7.14-4.58,5.23-4.81,5.65-15.12,15.31-9.72Z"/>
      <path class="cls-1" d="M1886.44,860.55l-1.3,6.54,6.34,1.47.16,7.73c-10.8-1.63-21.69,3.7-32.19-.2l-.22-5.06c-6.54,3.29-10.6-.32-16.29-1.21-5.35-.84-14.53,2.02-14.94-6-.39-7.56,8.74-11.08,15.1-11.2,4.98-.1,11.79,3.58,17.12,4.95,2.72.7,5.78-.06,8.48.6,2.59.63,4.24,3.26,6.84,3.67,3.75.59,7.19-1.71,10.91-1.31Z"/>
      <path class="cls-1" d="M1096.9,362.94c-.43.7-3.08.79-3.46,2.3-.41,1.66,2.28,6.38,2.24,9.14-.15,11.88-7.73,7.25-15.36,10.47-3.36,1.42-9.96,9.11-13.54,3.33-.29-.46-.95-10.16-.77-10.94.41-1.78,5.07-1.56,3.95-4.85l-3.58-.23c-2.84-10.2,1.34-13.92,11.34-11.6l2.6-8.61c5.25,1.06,11.98-2.67,15.42,2.85,1.17,1.87,2.3,6.3,1.15,8.14Z"/>
      <path class="cls-1" d="M628.19,666.15c3.39-13.69-17.43-23.22-28.18-23.29-5.41-.04-9.66,2.86-14.19,3.73-1.78.34-3.86.74-3.15-1.88,2.26-4.83,8.46-9.29,13.75-9.81,3.11-.3,17.52,2.51,20.87,3.58,3.06.98,27.01,12.64,29.76,14.48,17.6,11.8-8.76,18.41-18.86,13.19Z"/>
      <path class="cls-1" d="M583.97,148c-1,3.58-2.91,8.84-2.71,12.46.23,4.2,4.27,6.08,3.98,10.38-.6,9.01-13.94,15.37-20.02,8.58-1.37-1.53-1.55-4.1-3.35-5.79-2.24-2.11-8.27-3.02-9.71-5.96-1.65-2.25.46-8.54,2.77-9.08l9.57,6.46c1.45-5.21-3.75-13.57.57-17.16,4.88-4.06,13.59-1.95,18.9.12Z"/>
      <path class="cls-1" d="M1921.2,696.77c-1.72-.99-5.11.4-6.11-.39-.49-3.43-2.27-7.28-1.21-10.77.86-2.84,4.44-2.78,5.42-5.15,2.92-7.11-.3-19.79,12.95-17.9,3.11,1.03,5.8,13.28,5.97,16.44.16,2.98-1.27,5.25-1.22,7.68.07,3.58,2.5,7.72,1.14,11.64-.88,2.53-9.59,3.88-12.08,3.48-4.17-.67-3.86-4.45-4.85-5.02Z"/>
      <path class="cls-1" d="M1911.44,123.96c2.09,1.73,4.87,1.77,7.4,1.71l1.2-6c10.07-4.16,10.14,5.36,13.69,8.63,1.79,1.65,13.86,3.22,3.74,9.01-7.41,4.24-10.93-1.35-15.46-1.1-3.97.22-3.42,5.84-14.6,2.98-21.03-5.37-10.82-28.42,1.07-19.4,1.62,1.23,2.04,3.41,2.95,4.16Z"/>
      <path class="cls-1" d="M1943.49,749c-1.02,5.53-5.66,7.13-10.37,7.87-.21-4.13,1.29-8.3,3.16-11.88,2.71-5.19,5.76-9.5,10.98-4.98l-.55,5.04c18.99-25.8,31.98,9.57,15.64,21.1-6.87,4.85-13.4-14.07-18.85-17.16Z"/>
      <path class="cls-1" d="M1247.24,61.7c4.83-.07,10.07,3.35,15.23,3.63,6.8.37,26.81-6.37,16.82,6.56-10.92,14.13-45.85,17.17-40.28-7.99.69-.97,6.75-2.18,8.23-2.2Z"/>
      <path class="cls-1" d="M493.05,103.55c2.37,4.8,1.83,10.54-1.07,15.02-2.24,1.58-6.18-2.04-10.37-.11s-6.1,10.67-12.62,12.18c-5.49,1.27-12.68.07-17.34-3.23-4.38-13.37,9.5-11.96,18.23-15.54,5.01-2.06,18.58-11.24,23.17-8.32Z"/>
      <path class="cls-1" d="M562.96,115.45c.94.55,2.76,6.55,4.79,7.57,5.65-8.11,21.4-11.24,21.49,1.99.08,12.33-11.05,15.38-21.41,13.7-6.22-1.01-19.3-18.78-12.4-22.89,1.56-.93,6.04-1.24,7.53-.37Z"/>
      <path class="cls-1" d="M684.1,667.26c1.29,1.63,8,2.44,8.61,5.1-1.55,9.81-9.42,4.46-14.94,4.59-7.39.17-29.73,5.78-30.07-5-.16-5.05,10.53-2.4,14.01-3.02-5.42-7.53,1.34-13.78,10.16-10.94.88.28,10.12,4.72,10.59,5.07,1.34.99.89,3.26,1.63,4.2Z"/>
      <path class="cls-1" d="M625.42,149.3c-1.68,5.98-10.86,15.11-16.51,16.74-1.96.57-6.39-.01-6.77.36-1.49,1.47,1.12,12.12-11.72,6.48,2.27-7.14.19-17.64,6.55-22.88,7.64-6.3,19.8-2.84,28.45-.7Z"/>
      <path class="cls-1" d="M1654.14,51.21c2.72,2.65,5.78,11.72,3.58,15.44-.7,1.18-17.25,8.03-19.43,7.94-5.62-.23-17.12-10.72-11.79-14.62,2.13-1.56,6.59-1.49,9.9-3.11,5.06-2.47,10.83-12.4,17.74-5.65Z"/>
      <path class="cls-1" d="M566.94,98.28c-2.27-1.51-10.87,1.78-13.52-6.66-4.39-14.01,17.33-10.39,23.99-5.9,4.73,3.18,13.7,16.65,4.02,19.68-15.33,4.8-12.42-5.73-14.49-7.11Z"/>
      <path class="cls-1" d="M651.24,263.35c-11.32,0-12.52,9.88-21.05,12.92-4.99-.62-9.1-11.42-8.65-15.98,1.49-14.96,31.6-12.89,29.69,3.06Z"/>
      <path class="cls-1" d="M1674.07,79.64l3.56.19-.41,6.55c-8.44,3.51-21.26-.25-28.91-4.96-.99-.61-2.11-.23-1.72-2.31l1.33-4.03c8.5,1.35,8.19-8.35,14.91-8.54,7.68-.22,11.9,5.83,11.24,13.1Z"/>
      <path class="cls-1" d="M1693.07,76.13c.52.31.77,2.45,2.41,3.36,4.87,2.73,15.63-.27,10.15,12.04-3.55,7.99-23.96,8.29-25.29.64-.95-5.44,7.51-19.21,12.73-16.04Z"/>
      <path class="cls-1" d="M1657.91,737.33c10.9-3.51,20.39,29.4,3.52,30.03-10.58.4-9.39-28.13-3.52-30.03Z"/>
      <path class="cls-1" d="M777.41,1235.46c2.92,1.81,10.95,2.29,6.12,7.61-1.23,1.35-9.11,4.37-11.17,4.55-2.52.22-7.72-1.4-8.07-1.14-.74.54-1.96,6.98-4.71,3.8-2.43-2.8-3.22-10.76-.14-13.24l12.36-1.32.08-3.8c4.39-1.41,4.25,2.75,5.54,3.54Z"/>
      <path class="cls-1" d="M609.48,104.26c-11.13,8.25-22.55-12.59-9.64-18.28,13.16-5.8,16.22,13.4,9.64,18.28Z"/>
      <path class="cls-1" d="M1979.66,540.46c2.08,6.69,3.98,15.89,2.69,22.86-1.55,8.37-13,.13-7.77-7.2l-5.69,2.55-4.52-6.99c5.56-3.56,7.93-12.54,15.3-11.22Z"/>
      <path class="cls-1" d="M559.49,209.49c-1.23-8.49,5.45-18.45,14.41-13.98,15.8,7.89-3.08,21.05-14.41,13.98Z"/>
      <path class="cls-1" d="M530.44,84.07c2.49,2.03,4.39,6.44.78,8.55-2.81,1.65-22.49,6.07-23.67,2.07-2.25-7.63,15.57-16.59,22.89-10.62Z"/>
      <path class="cls-1" d="M1919.68,613.94c7.4-1.29,11.7,31.5-1.54,23.58-8.17-4.89-5.92-18.94,1.54-23.58Z"/>
      <path class="cls-1" d="M1977.02,136.03c-10.01,2.83-29.02,3.44-27.06-11.66,3.35-.31,3.84,3.43,7.19,3.96,7.52,1.19,22.93-8.14,19.87,7.7Z"/>
      <path class="cls-1" d="M1921.14,721.78c3.4,3.69-3.17,15.49-5.51,19.37-2.4,3.99-4.33,9.02-9.73,9.16-1.93-4.99-1.65-11.75,1.44-16.23,1.97-2.85,6.12-3.6,7.23-5.14,1.4-1.93.8-6.19,2.93-8.23.72-.75,3.22.63,3.62,1.07Z"/>
      <path class="cls-1" d="M1849.77,654.67c10.29-2.74,7.53,25.49-6.56,20.67-6.29-2.15.95-19.18,6.56-20.67Z"/>
      <path class="cls-1" d="M529.52,98.11c3.01,12.75-12.82,11.43-20.72,17.06-.5-5.68,0-10.55,2.79-15.52l17.93-1.54Z"/>
      <path class="cls-1" d="M1982.22,788.52c2.72,8.4,1.13,16.5-1.26,24.68-6.43,1.58-13.15-7.46-9.61-13.02.71-1.11,3.09-1.42,3.84-2.66,1.36-2.24.59-6.46,2.15-8.97l4.88-.03Z"/>
      <path class="cls-1" d="M1940.57,879.93c-2.31,2.07-9.56,2.87-12.64,1.62,3.16,7.75-4.23,8.29-10.36,7.86.45-5.11,3.85-8.71,9.07-7.88l-1.31-7.86c5.63.32,12.57-1.67,16.75,3.26-.73.78-.88,2.44-1.5,3.01Z"/>
      <path class="cls-1" d="M600.45,128.55c19.15-4.17,9.56,22.42-6.27,9.62-2.47-3.41,2.73-8.86,6.27-9.62Z"/>
      <path class="cls-1" d="M1940.4,701.91c13.92-4.99,22.38,22.56-2.18,9.69-1.96-1.67.01-8.91,2.18-9.69Z"/>
      <path class="cls-1" d="M819.43,196.79c10.08-3.13,21.67,8.15,4.35,10.97-14.59,2.38-8.95-9.54-4.35-10.97Z"/>
      <path class="cls-1" d="M604.41,69.56c.95.88,1.04,2.51.92,3.76-1.27,13.31-20.96,8.77-13.29-5.08,2.18-2.17,10.29-.63,12.38,1.32Z"/>
      <path class="cls-1" d="M629.02,669.2c4.93-.59,13.65,2.96,10.06,8.96-4.67,6.01-22.63.47-15.55-6.54,1.25-1.24,3.78-2.21,5.49-2.42Z"/>
      <path class="cls-1" d="M692.42,230.28c-1.39,1.67-9.78,5.79-11.26,4.32.08-4.91-1.48-12.63,3.91-15.1,6.33-2.9,11.41,5.92,7.35,10.78Z"/>
      <path class="cls-1" d="M1934,712.64c3.52,3.92-2.25,7.64-6.13,6.98-11.13-1.9-10.82-15.5-1.92-13.99.8.14,7.09,5.96,8.04,7.01Z"/>
      <path class="cls-1" d="M1191.6,500.79l-6.44-.57c-1.2-3.23-2.4-13.99.08-15.7l7.83-1.91-1.47,18.18Z"/>
      <path class="cls-1" d="M1085.19,181.12c5.23,5.34-2.6,16.84-9.72,12.5-4.71-5.45,3.63-18.72,9.72-12.5Z"/>
      <path class="cls-1" d="M1467.44,187.72c5.63,0,13.95,10.93,1.23,9.99-14.95-1.1-11.04-9.98-1.23-9.99Z"/>
      <path class="cls-1" d="M1979.77,836.92c-2.15-8.24,11.56-11.29,15.65-6,1.7,2.2,4.09,9.3-1.09,7.69-5.61-1.74-7.26-4.56-14.56-1.69Z"/>
      <path class="cls-1" d="M1230.68,213.59l-1.53-9.04c-8.96.02-2.87-13.76,4.2-8.75,2.11,1.5,2.76,17.01-2.67,17.8Z"/>
      <path class="cls-1" d="M1413.06,198.02c6.72-.97,7.99,7.62,2.16,11.5-10.67,7.1-10.84-10.24-2.16-11.5Z"/>
      <path class="cls-1" d="M679.84,216.21c-8.2,1.74-8.8-15.84-1.91-15.81,6.15.02,3.74,12.63,1.91,15.81Z"/>
      <path class="cls-1" d="M483.99,127.17l.22,10.75-4.41,1.94c-7.51-4.37-5.31-17.39,4.19-12.69Z"/>
      <path class="cls-1" d="M700.24,670.55c11.99-2.65,10,9.76,1.14,8.9-6.93-.67-8.56-7.25-1.14-8.9Z"/>
      <path class="cls-1" d="M1945.88,729.13l-8.72,1.33c-2.34-4.01-.79-7.48-.16-11.66l8.5,2.54.37,7.78Z"/>
      <path class="cls-1" d="M1194.37,466.87c2.48,7.11-3.27,21.56-8.1,10.12-2.78-6.57,6.66-11.61,8.1-10.12Z"/>
      <path class="cls-1" d="M1348.6,528.55c.63,7.56-8.59,8.13-14.25,7.87v-6.57s14.25-1.3,14.25-1.3Z"/>
      <path class="cls-1" d="M1296.76,520.65c-5.57,1.04-15.39,3.89-16.84-3.92,6,1.15,17.41-5.89,16.84,3.92Z"/>
      <path class="cls-1" d="M1962.91,717.51c1.08,6.48-4.29,10.24-9.8,6.64l-.44-5.21,10.24-1.43Z"/>
      <path class="cls-1" d="M1988.36,547.07c8.65-2.98,8.95,6.96,1.12,9.08-4.23.05-4.58-7.89-1.12-9.08Z"/>
      <path class="cls-1" d="M1917.38,871.23l1.47,7.69-8.52-1.21c-2.33-5.93,1.72-7.7,7.05-6.48Z"/>
      <path class="cls-1" d="M1125.68,296.26l-.21,8.33c-7.77,8.04-9.44-11.3.21-8.33Z"/>
      <path class="cls-1" d="M1953.84,882.86c1.99,5.5-9.31,11.14-10.16,5.94-.82-5.02,6.14-6.74,10.16-5.94Z"/>
      <path class="cls-1" d="M1955.13,826.42v-3.93c2.39.18,14.24-1.06,14.24,1.96-3.52,3.77-9.71,1.36-14.24,1.96Z"/>
      <path class="cls-1" d="M1221.59,201.79l-1.21,5.98-7.85.57c-.59-5.95,4.11-7.2,9.06-6.55Z"/>
      <path class="cls-1" d="M1983.64,822.5c.08,5.62-6.54,3.73-10.36,3.92l.57-4,1.57-1.1,8.22,1.18Z"/>
      <path class="cls-1" d="M1952.36,728.19c1.46.93,1.62,4.92-.4,6.5-7.8,6.08-7.18-11.35.4-6.5Z"/>
      <path class="cls-1" d="M1531.33,138.79c.71,3.58,1.63,8.3-3.21,9.18-3.9-3.59-2.61-10.34,3.21-9.18Z"/>
      <path class="cls-1" d="M1373.22,427.5c1.94,1.69-9.64,9.01-10.93,10.58-9.13,11.21,2.43,9.64,8.98,15.67,2.62,2.42,4.4,7,7.78,9.22,4.72,3.1,13.81,1.25,13.72,12.46-.07,9.06-14.86,8.22-21.2,6.89-.74-.15-12.06-4.02-12.64-4.38-2.61-1.63-2.28-6.9-8.39-7.26l-26.03,6.58-20.66,1.46c-2.87-5.25,1.1-8.76,1.91-12.57.56-2.64-.24-5.4.65-8.53.82-2.86,4.93-6.39,4.62-10.42l3.21,3.9c7.88-4.08,8.05-14.33,9.86-22.15l6.35-.14.14,9.04,6.33,1.48c1.27,6.45-8.29,6.86-9.1,12.43-.51,2.75,1.07,1.82,2.84,2.35,8.82,2.66,18.32-2.15,26.47-5.57l-.96-5.11c-3.6-.38-9.83.79-11.45-3.48-1.16-3.05,4.47-1.85,6.19-3.56,1.13-1.12,1.03-4.31,1.75-4.78,1.31-.85,7.64.23,10.59-.44,3.23-.73,5.66-4.96,9.97-3.66Z"/>
      <path class="cls-1" d="M1463.94,443.23c-6.06-.82-13.72.23-11.64,7.86l-6.38,2.1,3.71,11.77,11.16,1.83,2.51,10.56,2.67-6.61,6.91.23c1.36,4.61,1.98,8.36.13,12.97-4.63.13-3.66-6.76-9.05-5.24l7.86,35.87-12.41,6.94c-3.41-.02-16.63-10.39-18.49-13.58-3.93-6.71.49-4.91,2.07-7.77,1.27-2.31,1.01-7.18,1.8-8.07,1-1.15,6.03.23,4.73-4.66-3.2-4.95-8.12-5.54-12.03-10.16-3.4-4.02-12.71-20.5-12.38-25.41.38-5.8,9.05-11.07,13.01-14.46,1.42-1.22,1.96-3.49,2.88-4.25,5.28-4.35,12.72.09,17.09-.39,1.37-.15,7.67-5.31,6.66.09-.66,3.48-3.23,5.78-.79,10.4Z"/>
      <path class="cls-1" d="M1530.03,431.44c.74.8-.07,9.64.56,11.85.83,2.94,3.47,2.41,3.39,3.25-.19,1.9-2.07,2.9-2.28,4.1-.56,3.25,3.86,9.34-3.56,10.94-4.69.11-7.22-7.99-13.04-4.27l-1.29-.88-.69-13.7,6.39-2.3.16-9.02,10.36.02Z"/>
      <path class="cls-1" d="M370.1,427.49c-1.36-.98-5.49-5.56-5.9-6.57-.62-1.53,2.05-2.58,1.84-4.35-.22-1.89-4.53-4.45-3.7-7.45,6.92,3.88,8.5,10.83,7.75,18.37Z"/>
    </g>
  </g>
</svg>